<?xml version="1.0" encoding="utf-8"?>
<!-- Generator: Adobe Illustrator 17.1.0, SVG Export Plug-In . SVG Version: 6.00 Build 0)  -->
<!DOCTYPE svg PUBLIC "-//W3C//DTD SVG 1.0//EN" "http://www.w3.org/TR/2001/REC-SVG-20010904/DTD/svg10.dtd">
<svg version="1.0" xmlns="http://www.w3.org/2000/svg" xmlns:xlink="http://www.w3.org/1999/xlink" x="0px" y="0px"
	 viewBox="0 0 500 500" style="enable-background:new 0 0 500 500;" xml:space="preserve">
<g id="BACKGROUND" style="display:none;">
	<g style="display:inline;opacity:0;">
		<rect x="0" y="0" style="fill:#FFFFFF;" width="500" height="500"/>
	</g>
	<path style="display:inline;fill:#ED1C24;" d="M247.7,45h185.4c9.8,0,17.7,8,17.7,17.8v117.4c0,9.8-7.9,17.8-17.7,17.8H308
		c-9,12.6-25.4,35.3-26.9,35.3c-1.4,0,1.3-21.4,3.1-35.3h-36.5c-9.8,0-17.7-8-17.7-17.8V62.8C230,53,237.9,45,247.7,45z"/>
	<path style="display:inline;fill:#FFFFFF;" d="M430.2,105.4H384h0h-43.9c-0.3,0-0.5,0.2-0.5,0.5v6.9c0,0.3,0.2,0.5,0.5,0.5H384h2.2
		h43.9c0.3,0,0.5-0.2,0.5-0.5v-6.9C430.7,105.6,430.5,105.4,430.2,105.4z"/>
	<path style="display:inline;fill:#FFFFFF;" d="M250.9,113.4h75.2c0.3,0,0.5-0.2,0.5-0.5v-7c0-0.3-0.2-0.5-0.5-0.5h-75.2
		c-0.3,0-0.5,0.2-0.5,0.5v7C250.4,113.2,250.6,113.4,250.9,113.4z"/>
	<path style="display:inline;fill:#FFFFFF;" d="M250.6,87.2h100.3c0.3,0,0.5-0.2,0.5-0.5v-7c0-0.3-0.2-0.5-0.5-0.5H250.6
		c-0.3,0-0.5,0.2-0.5,0.5v7C250.1,86.9,250.3,87.2,250.6,87.2z"/>
	<path style="display:inline;fill:#FFFFFF;" d="M369,87.2h61.3c0.3,0,0.5-0.2,0.5-0.5v-7c0-0.3-0.2-0.5-0.5-0.5H369
		c-0.3,0-0.5,0.2-0.5,0.5v7C368.5,86.9,368.7,87.2,369,87.2z"/>
	<polygon style="display:inline;fill:#FFFFFF;" points="250.1,164.8 430.7,164.8 430.7,164.8 430.7,156.8 250.1,156.8 	"/>
	<rect x="344.8" y="131.4" style="display:inline;fill:#FFFFFF;" width="85.9" height="8"/>
	<rect x="250.4" y="131.4" style="display:inline;fill:#FFFFFF;" width="85.9" height="8"/>
	<path style="display:inline;fill:#8A00EE;" d="M242.6,244.7H57.3c-9.8,0-17.7,8-17.7,17.8v117.4c0,9.8,7.9,17.8,17.7,17.8h125.1
		c9,12.6,25.4,35.3,26.9,35.3c1.4,0-1.3-21.4-3.1-35.3h36.5c9.8,0,17.7-8,17.7-17.8V262.5C260.4,252.7,252.4,244.7,242.6,244.7z"/>
	<path style="display:inline;fill:#FFFFFF;" d="M60.2,305h46.2h0h43.9c0.3,0,0.5,0.2,0.5,0.5v6.9c0,0.3-0.2,0.5-0.5,0.5h-43.9h-2.2
		H60.2c-0.3,0-0.5-0.2-0.5-0.5v-6.9C59.6,305.3,59.9,305,60.2,305z"/>
	<path style="display:inline;fill:#FFFFFF;" d="M239.5,313.1h-75.2c-0.3,0-0.5-0.2-0.5-0.5v-7c0-0.3,0.2-0.5,0.5-0.5h75.2
		c0.3,0,0.5,0.2,0.5,0.5v7C240,312.9,239.7,313.1,239.5,313.1z"/>
	<path style="display:inline;fill:#FFFFFF;" d="M239.8,286.8H139.5c-0.3,0-0.5-0.2-0.5-0.5v-7c0-0.3,0.2-0.5,0.5-0.5h100.3
		c0.3,0,0.5,0.2,0.5,0.5v7C240.3,286.6,240.1,286.8,239.8,286.8z"/>
	<path style="display:inline;fill:#FFFFFF;" d="M121.4,286.8H60.1c-0.3,0-0.5-0.2-0.5-0.5v-7c0-0.3,0.2-0.5,0.5-0.5h61.3
		c0.3,0,0.5,0.2,0.5,0.5v7C121.9,286.6,121.7,286.8,121.4,286.8z"/>
	<polygon style="display:inline;fill:#FFFFFF;" points="240.3,364.5 59.6,364.5 59.6,364.5 59.6,356.5 240.3,356.5 	"/>
	<rect x="59.6" y="331.1" style="display:inline;fill:#FFFFFF;" width="85.9" height="8"/>
	<rect x="154.1" y="331.1" style="display:inline;fill:#FFFFFF;" width="85.9" height="8"/>
</g>
<g id="Layer_4">
	<path style="fill:#A2CDFC;" d="M96.3,44.3c0,0-37-1.8-17.4,110.9c0,0,13.2,38.3-3.5,62.9h245.2V44.3H96.3z"/>
	<rect x="111.9" y="111" style="fill:#8ABCF0;" width="256" height="333.9"/>
	<rect x="120.3" y="111" style="fill:#E5F2FD;" width="251.7" height="333.9"/>
	<path style="fill:#E5F2FD;" d="M372,111C372,111,372,111,372,111l-251.7,0c1.4-19-0.7-32.9-4.1-42.8c-6.5-19.1-17.6-23.9-17.6-23.9
		H336c20.3,0,36,12.2,40.2,28.4c0.2,0.6,0.3,1.2,0.4,1.8C380.8,93,372.2,110.6,372,111z"/>
	<path style="fill:#D1E8FD;" d="M372,111C372,111,372,111,372,111l-251.7,0c1.4-19-0.7-32.9-4.1-42.8c25.7,4.7,89.4,14.7,157.6,13.1
		c44.1-1.1,79-4,102.9-6.7C380.8,93,372.2,110.6,372,111z"/>
	<g>
		<path style="fill:#B0D5FD;" d="M305.5,188H172c-1.4,0-2.5-1.1-2.5-2.5v-1.3c0-1.4,1.1-2.5,2.5-2.5h133.5c1.4,0,2.5,1.1,2.5,2.5
			v1.3C308,186.9,306.9,188,305.5,188z"/>
		<path style="fill:#B0D5FD;" d="M253.8,198.5h-82.4c-1.1,0-2-0.9-2-2v-2.3c0-1.1,0.9-2,2-2h82.4c1.1,0,2,0.9,2,2v2.3
			C255.8,197.6,254.9,198.5,253.8,198.5z"/>
		<g>
			<path style="fill:#B0D5FD;" d="M156.6,197.5v-12.8H155c-1,0-1.5-0.4-1.5-1.3c0-0.6,0.4-1,1.2-1.3c0.4-0.1,1.1-0.2,2-0.3
				c0.9-0.1,1.6-0.1,2.2-0.1c0.5,0,0.9,0.1,1,0.3c0.1,0.2,0.2,0.8,0.2,1.6v13.8h1.7c1.1,0,1.7,0.5,1.7,1.5c0,1-0.6,1.5-1.7,1.5h-7
				c-0.5,0-0.9-0.1-1.2-0.4c-0.3-0.3-0.5-0.6-0.5-1.1c0-1,0.6-1.5,1.7-1.5H156.6z"/>
		</g>
	</g>
	<g>
		<path style="fill:#CBE4FD;" d="M305.5,253.9H172c-1.4,0-2.5-1.1-2.5-2.5v-1.3c0-1.4,1.1-2.5,2.5-2.5h133.5c1.4,0,2.5,1.1,2.5,2.5
			v1.3C308,252.8,306.9,253.9,305.5,253.9z"/>
		<path style="fill:#CBE4FD;" d="M253.8,264.5h-82.4c-1.1,0-2-0.9-2-2v-2.3c0-1.1,0.9-2,2-2h82.4c1.1,0,2,0.9,2,2v2.3
			C255.8,263.6,254.9,264.5,253.8,264.5z"/>
		<g>
			<path style="fill:#CBE4FD;" d="M163.6,263.2c0,0.9-0.6,1.3-1.8,1.3h-7.4c-1.1,0-1.6-0.4-1.6-1.3c0-0.3,0.1-0.6,0.4-0.9
				c0.4-0.5,1-1.2,1.9-2.2c1.2-1.6,2.3-2.9,3.1-4c0.3-0.4,0.7-0.9,1.2-1.7c0.4-0.8,0.7-1.4,0.7-1.9c0-0.6-0.2-1.1-0.6-1.5
				c-0.4-0.4-0.9-0.6-1.4-0.6c-0.6,0-1.1,0.2-1.5,0.5c-0.3,0.2-0.5,0.7-0.7,1.4c-0.2,0.9-0.3,1.4-0.4,1.5c-0.2,0.5-0.6,0.7-1.1,0.7
				c-0.5,0-0.8-0.2-1.1-0.5c-0.2-0.3-0.4-0.7-0.4-1.1c0-0.5,0.1-1.1,0.2-1.6c0.4-1.2,1-2,1.9-2.7c0.9-0.6,1.9-0.9,3.2-0.9
				c1.4,0,2.5,0.4,3.4,1.2c0.9,0.9,1.4,2,1.4,3.4c0,1-0.3,2.1-1,3.1c-0.4,0.6-1.2,1.6-2.3,3.1c-0.6,0.8-1.6,1.9-2.8,3.4h4.9
				C163.1,261.9,163.6,262.3,163.6,263.2z"/>
		</g>
	</g>
	<g>
		<path style="fill:#CBE4FD;" d="M305.5,308.9H172c-1.4,0-2.5-1.1-2.5-2.5v-1.3c0-1.4,1.1-2.5,2.5-2.5h133.5c1.4,0,2.5,1.1,2.5,2.5
			v1.3C308,307.8,306.9,308.9,305.5,308.9z"/>
		<path style="fill:#CBE4FD;" d="M253.8,319.5h-82.4c-1.1,0-2-0.9-2-2v-2.3c0-1.1,0.9-2,2-2h82.4c1.1,0,2,0.9,2,2v2.3
			C255.8,318.6,254.9,319.5,253.8,319.5z"/>
		<g>
			<path style="fill:#CBE4FD;" d="M163.6,314.2c0,1.6-0.6,2.9-1.7,3.9c-1.1,0.9-2.4,1.4-4,1.4c-1.3,0-2.3-0.3-3.2-0.9
				c-1.4-1-2.1-2.1-2.1-3.4c0-0.4,0.1-0.7,0.4-1c0.2-0.3,0.6-0.4,0.9-0.4c0.4,0,0.8,0.3,1.1,0.8c0.6,0.9,0.9,1.4,1,1.5
				c0.5,0.5,1.2,0.8,2,0.8c1.1,0,1.8-0.4,2.3-1.2c0.2-0.4,0.3-0.9,0.3-1.5c0-1.5-0.9-2.3-2.7-2.5c-1-0.1-1.5-0.5-1.5-1.3
				c0-0.6,0.3-0.9,0.9-1.2c1.1-0.4,1.6-0.6,1.7-0.6c0.6-0.4,0.9-1.1,0.9-2c0-0.6-0.2-1-0.5-1.4c-0.3-0.3-0.8-0.5-1.4-0.5
				c-0.7,0-1.3,0.2-1.7,0.5c-0.3,0.3-0.6,0.8-0.9,1.5c-0.2,0.5-0.5,0.8-1.1,0.8c-0.4,0-0.7-0.2-0.9-0.5c-0.2-0.3-0.4-0.7-0.4-1.1
				c0-0.5,0.1-1,0.4-1.4c0.4-0.8,1.1-1.4,2-1.9c0.8-0.4,1.7-0.6,2.7-0.6c1.3,0,2.4,0.4,3.3,1.2c0.9,0.8,1.3,1.8,1.3,3.1
				c0,1.6-0.6,2.8-1.9,3.7C162.7,310.7,163.6,312.2,163.6,314.2z"/>
		</g>
	</g>
	<g>
		<path style="fill:#B0D5FD;" d="M289.9,133.2h-83.2c-1.4,0-2.6-1.2-2.6-2.6v-2.1c0-1.4,1.2-2.6,2.6-2.6h83.2c1.4,0,2.6,1.2,2.6,2.6
			v2.1C292.5,132,291.4,133.2,289.9,133.2z"/>
		<path style="fill:#B0D5FD;" d="M311.6,144.4H185.1c-1.7,0-3.2-1.4-3.2-3.2v-0.9c0-1.7,1.4-3.2,3.2-3.2h126.5
			c1.7,0,3.2,1.4,3.2,3.2v0.9C314.8,143,313.4,144.4,311.6,144.4z"/>
	</g>
	<g>
		<path style="fill:#ED1C24;" d="M238.6,221.7c-27.4,0-53.4-3.4-72.8-8.4c-19.6-5-30.2-13.1-30.2-20.3c0-6.5,8.6-12.5,24.9-17.4l0,0
			c-15.6,4.6-23.9,11.4-23.9,17.4c0,6.6,10.8,13.1,29.7,17.9c19.3,4.9,45,7.6,72.4,7.6c27.4,0,53.1-2.7,72.4-7.6
			c18.9-4.8,29.7-11.3,29.7-17.9c0-7-11.4-15.6-29.7-22.6c-20.8-7.9-46.5-10.9-72.3-10.9c-48.5,0-68.4,5.7-85.7,12.7l0,0
			c17.4-7.1,37.1-15.2,85.7-15.2c25.9,0,51.7,4.4,72.7,12.4c18.7,7.1,30.3,16.2,30.3,23.6c0,7.2-10.8,13.9-30.4,18.9
			C291.8,216.9,266,221.7,238.6,221.7z"/>
	</g>
	<g>
		<path style="fill:#FFB27B;" d="M405.1,286c0,0-0.9,8.8-1.9,10.4c-1,1.7-5.2,7-7,8c-1.8,1,1.1-7,0.7-8.6c-0.4-1.6-1.5,2.9-2.3,3
			c-0.8,0.1-0.6-3.9-0.6-5.3c0-1.4,3.9-5,5.2-8.1C400.7,282.4,405.1,286,405.1,286z"/>
		<path style="fill:#FFB27B;" d="M297.3,205.1l-2-3.8c0,0,1-6.8-7.5-11.1c0,0-3.1-1.3-4.9,1.3c-1.6,2.3,3.1,1.9,2.8,5.9
			c-0.3,4,1.6,6.3,4.3,7.6l2.2,2.5L297.3,205.1z"/>
		<path style="fill:#FF862E;" d="M377.6,196c0,0-7.3,35.8-47.5,47.5c-12.5,3.7-41-37.6-41-37.6s1-3.8,7.3-2.9
			c0,0,27.7,18.4,31.2,20.4c3.1,1.8,23.5-22.8,32.8-26.7C369.7,192.6,377.6,196,377.6,196z"/>
		<g>
			
				<rect x="285" y="176.6" transform="matrix(0.1518 -0.9884 0.9884 0.1518 51.7354 451.263)" style="fill:#ED1C24;" width="7.5" height="37.7"/>
			<polygon style="fill:#FFB27B;" points="261.5,191.3 269.6,196.3 270.7,188.9 			"/>
			<path style="fill:#FFB27B;" d="M312,197.8l-0.4,2.3c-0.2,1.4-1.6,2.4-3,2.2l-1.7-0.3l1.1-7.4l1.9,0.3
				C311.3,195.1,312.2,196.4,312,197.8z"/>
		</g>
		<g>
			<path style="fill:#5D04AA;" d="M425.6,421.2c0,0,5,4.5,4,7.8c-1,3.2-5.5,5.4-6.1,9.3c-0.6,3.9-3,6.1-5.2,6.1
				c-2.2,0-10.4,0-10.4,0s-1.6-2.8,2.3-3.6c3.9-0.8,5.4-5.5,5.1-9.8c-0.2-4.3,0.4-10.1,0.4-10.1l8.3-1.9L425.6,421.2z"/>
			<path style="fill:#5D04AA;" d="M364.4,432.9c0,0,0.9,10.3-1.3,11.4l-28-0.1c0,0,0-3.2,4.5-3.9c4.5-0.7,12.4-3.4,13.7-9.2
				C354.7,425.3,364.4,432.9,364.4,432.9z"/>
			<path style="fill:#8A00EE;" d="M340.8,286.7c0,0,1.5,18.1,3.2,39.9c2.4,29.6,5.2,66,5.5,72.9c0.5,12,2.4,31.1,2.4,31.1
				s4.6,4.5,13.9,2.6c0,0,8.2-27.3,10.6-56.3c0-0.5,0.1-1,0.1-1.4c2.2-29.4,5.6-91.4,5.6-91.4L340.8,286.7z"/>
			<path style="fill:#5D04AA;" d="M340.8,286.7c0,0,1.5,18.1,3.2,39.9l32.3,50.4c0-0.5,0.1-1,0.1-1.4c2.2-29.4,5.6-91.4,5.6-91.4
				L340.8,286.7z"/>
			<path style="fill:#8A00EE;" d="M347.5,288.9c0,0,26.6,65.7,44.1,96.6c17.5,30.9,23,39.5,23,39.5s10-3.9,10.9-6.6
				c0,0-6.7-59.6-18.4-74.1c-6.6-8.2-14.4-32.9-14.8-41.5C392,294.1,390,277,390,277L347.5,288.9z"/>
		</g>
		<path style="fill:#FFB27B;" d="M382.6,187.6c0,0-18,8.7-28.4,5.5c0,0,2.6-3.2,7-5.6c-0.4-2.1-0.6-3.9-0.8-5.4
			c-0.4-3.5-0.4-5.5-0.4-5.5l6.9-5.5l6.6-5.2C373,180.5,382.6,187.6,382.6,187.6z"/>
		<path style="fill:#FF9841;" d="M392,280.4c0,1.1-2.3,2.4-3.4,2.8c-7.7,3.4-14.9,5.7-23,6.5c-9.6,1-21-1.2-24.9-1.1
			c-0.4,0-0.8-0.2-1.1-0.4c-0.3-0.2-0.5-11.8-0.3-26.4c0-0.6,0-1.2,0-1.8v-0.2c0.1-5.7,0.3-11.7,0.6-17.7
			c0.6-13.1,1.6-25.8,3.4-32.8c2.1-8.3,6.9-13.7,11.3-17.7l3.6-3.1c3.6,0.7,7.4,0.5,11.2-1.3c4.2-2,8.6-4.2,9.3-3.6
			c5.4,4,9.1,12.9,11.1,24.3c1.1,6.6,1.7,13.9,1.6,21.6c0,2.8-0.1,5.7-0.2,8.6c-1,15.6,0,29.1,0.6,36.9
			C391.9,277.4,392,279.2,392,280.4z"/>
		<path style="fill:#FF862E;" d="M391.7,279.7c-63.1-0.1-11.6-68.4-11.6-68.4l10.2-3.3c0.8,7,1.2,14.9,1.2,23.1c0,3-0.1,6.1-0.2,9.2
			C390.6,256.9,391.3,271.3,391.7,279.7z"/>
		<path style="fill:#FF985B;" d="M373.6,171.4c0,0-4.6,8.3-13.2,10.6c-0.4-3.5-0.4-5.5-0.4-5.5l6.9-5.5L373.6,171.4z"/>
		<path style="fill:#FFB27B;" d="M356.8,176.3c0,0,17.2,2.8,18.8-7.8c1.6-10.6,4.9-17.3-6-19.6c-10.9-2.2-13.7,1.5-15.1,4.9
			C353.1,157.2,352.4,175.3,356.8,176.3z"/>
		<path style="fill:#1F3765;" d="M381.8,147.7c0.2-0.2,0.5-0.3,1.3-0.4c0,0-0.6-0.4-1.5-0.4c-0.2-1.1-0.8-3.1-2.7-3.6
			c0,0,1,0.5,1.2,1.7c-2.2-2.3-7-3.9-20.1-2.9c-17.4,1.4-11.6,12.5-9.4,13.8c2.2,1.3,7.9-2.3,12.1-2c4.2,0.3,5,6.4,6.4,7.2
			c1.4,0.8,0.9-0.6,2.8-1.5c1.9-0.9,2.1,2.3,1.5,4.4c-0.6,2.1,2.1,4.8,2.1,4.8s0,0,2.7-2.9c2.7-2.9,5.2-15,4-17.6
			C382,148.2,381.9,147.9,381.8,147.7z"/>
		<path style="fill:#FF9841;" d="M378.7,183.6c0,0,10.9,5.1,16.1,13.1c8.1,12.3,17.5,57,17.6,61.2c0.2,4.1-6.8,33.4-6.8,33.4
			s-7.1-0.5-8.9-4.1c0,0,1.4-30,0.5-32c-0.9-1.9-29.7-40.3-26.4-48.5C374,198.4,378.7,183.6,378.7,183.6z"/>
		<path style="fill:#FFB27B;" d="M295.2,201.1c0,0,0.6-2.3-1-3.4c-1.6-1-3.1-3.9-3.8-3.5c-1.4,0.8,0.8,3.3,0.4,6.4
			C290.6,201.7,293.2,204.5,295.2,201.1z"/>
	</g>
	<path style="fill:#CBE4FD;" d="M314.9,372.3H160.1c-1,0-1.9-0.8-1.9-1.9l0,0c0-1,0.8-1.9,1.9-1.9h154.8c1,0,1.9,0.8,1.9,1.9l0,0
		C316.8,371.4,315.9,372.3,314.9,372.3z"/>
	<path style="fill:#CBE4FD;" d="M314.9,379.8H160.1c-1,0-1.9-0.8-1.9-1.9l0,0c0-1,0.8-1.9,1.9-1.9h154.8c1,0,1.9,0.8,1.9,1.9l0,0
		C316.8,379,315.9,379.8,314.9,379.8z"/>
	<path style="fill:#CBE4FD;" d="M314.9,388.2H160.1c-1,0-1.9-0.8-1.9-1.9l0,0c0-1,0.8-1.9,1.9-1.9h154.8c1,0,1.9,0.8,1.9,1.9l0,0
		C316.8,387.3,315.9,388.2,314.9,388.2z"/>
	<path style="fill:#CBE4FD;" d="M294.6,396.5H160c-1,0-1.8-0.8-1.8-1.8v-0.3c0-1,0.8-1.8,1.8-1.8h134.6c1,0,1.8,0.8,1.8,1.8v0.3
		C296.3,395.7,295.6,396.5,294.6,396.5z"/>
</g>
<g id="OBJECTS" style="display:none;">
	<g style="display:inline;">
		<g>
			<path style="fill:#164353;" d="M35.3,441.5c0,1.5,0.2,2.5,0.2,2.5h43.2c0-0.9,0-1.7-0.1-2.5c-0.5-11.3-4.1-21.1-4.1-21.1
				l-10.8-4.6c-0.9,5.6-3.3,9.1-6.3,11.4c-0.8,0.6-1.6,1.1-2.5,1.6c-0.4,0.2-0.8,0.4-1.2,0.6c-0.9,0.4-1.8,0.7-2.8,1
				c-3.8,1.2-7.7,1.4-10.4,1.8C36,432.9,35.3,438.3,35.3,441.5z"/>
			<path style="fill:#225866;" d="M35.3,441.5c0,1.5,0.2,2.5,0.2,2.5h43.2c0-0.9,0-1.7-0.1-2.5H35.3z"/>
			<path style="fill:#225866;" d="M55,428.8l6,1.9l1.3-2.2l-4.8-1.3C56.7,427.8,55.8,428.4,55,428.8z"/>
			<path style="fill:#225866;" d="M51,430.4l4,2.7l2.5-1l-3.8-2.7C52.9,429.8,51.9,430.1,51,430.4z"/>
		</g>
		<g>
			<path style="fill:#164353;" d="M200.3,441.5c0.1,1.5,0.5,2.5,0.5,2.5h28.8c0.4-0.8,0.6-1.7,0.8-2.5c2.8-13.8-16.3-30.6-16.3-30.6
				l-6.1,8.1c0,0,0.7,13-4.4,15.7C200.5,436.3,200.1,439.3,200.3,441.5z"/>
			<path style="fill:#225866;" d="M230.4,441.5h-30.1c0.1,1.5,0.5,2.5,0.5,2.5h28.8C230,443.2,230.2,442.4,230.4,441.5z"/>
			<path style="fill:#225866;" d="M204.9,433.6c0,0,12.1-2.8,17.6,0.8v-2C222.6,432.4,212.4,427.5,204.9,433.6z"/>
			<path style="fill:#225866;" d="M207.3,430.5c0,0,7.7-3.5,15.2,0l-0.9-2C221.7,428.5,212.8,425.1,207.3,430.5z"/>
		</g>
		<path style="fill:#8A00EE;" d="M48.4,319.1c0,11.6,10.3,105.9,10.3,105.9c10.3,1,18.5-1,18.5-1c2.8-47.8,3.1-88.9,3.1-88.9
			l49.2-36.9l0.1-0.1c0,0,0.2,0.8,0.5,2.3c2.4,10.8,12.8,56.2,17.1,66.5c4.9,11.8,58.4,61.6,58.4,61.6c9.9-1.4,18.4-8.6,18.4-8.6
			c-19.2-31.9-45.4-63.8-45.4-63.8c-2-11.5-3.5-37-4.4-56.1c0-0.3,0-0.6,0-0.9c-0.6-12.9-0.9-22.7-0.9-22.7l9-18.5l-57.3-21.1
			l-12.9,16.4c0,0-2.9,2.7-7.6,7.1c-0.2,0.2-0.4,0.4-0.6,0.6C86.7,277.3,48.4,314,48.4,319.1z"/>
		<g>
			<path style="fill:#6097B2;" d="M174.2,300.1c0-0.3,0-0.6,0-0.9c-12.1-6.6-10-17-10-17.1l-0.7-0.2
				C163.3,282,161.2,293.2,174.2,300.1z"/>
			<path style="fill:#6097B2;" d="M130.4,290.8c-0.4,2.3-0.7,4.8-0.9,7.4l0.1-0.1c0,0,0.2,0.8,0.5,2.3c0.5-17.9,7.9-28.5,8-28.6
				l-0.6-0.4c-0.1,0.1-4.7,6.8-7,18.6c-8.7-7.7-0.2-23.6-0.1-23.8l-0.7-0.4C129.7,266,120.6,282.8,130.4,290.8z"/>
			<path style="fill:#6097B2;" d="M103.9,261C103.9,261.1,103.9,261.1,103.9,261c0.4,0.2,0.8,0.2,1.2,0.2c4.2,0,11.3-5.9,11.6-6.2
				l-0.5-0.6c-2.3,2-8.7,6.6-11.8,6C104.3,260.6,104.1,260.8,103.9,261z"/>
		</g>
		<path style="fill:#ADBEC4;" d="M178.3,159.3c0,0-17.4-2.8-26.2,2.8s-20.2,20.1-20.2,20.1s13.6,1.8,15.2,11.1
			C147,193.2,156.9,169.7,178.3,159.3z"/>
		<path style="fill:#CFD8DC;" d="M204.5,168.4c7.4,4,19.7,19,20.3,28.2c0.5,9-6.1,17.2-10.6,24.3c-14,21.9-28.7,41.3-35,67
			c0,0.2-32,12.8-69.5-32.3c0,0,21.2-28.5,28.5-52.8c3-9.9,6-20.4,11.7-29.1c6.3-9.6,17.1-15.2,28.3-14.3
			C187.8,160.1,197.2,164.5,204.5,168.4z"/>
		<path style="fill:#EF6E4B;" d="M207.6,159.2c0,0-4.7,8.1-2.5,12.5c0,0-16.2,5.6-16.2-3.5c0,0,3.1-6.8,1.9-11.2L207.6,159.2z"/>
		<path style="fill:#EF6E4B;" d="M171.6,214.4c0,0,9,2.6,11.3,5.7c2.3,3.2,4.3,10.3,4.3,10.3h-15.6l-2.9-5.4l-3.4-7.2L171.6,214.4z"
			/>
		<g>
			<path style="fill:#164353;" d="M186.5,150.2c0,0-6.3-2.7-2.2-21.7c2.7-12.6,6.6-14.5,9.1-14.6c0,0,3.1-4.6,13.8-2.4
				c7.3,1.5,13.2,6,15.8,14.2c2.7,8.6-2.7,27-9.8,28.9L186.5,150.2z"/>
			<path style="fill:#FF8B66;" d="M185,137.4c0,0-4-5.5-5.5-0.1c-1.7,6.3,3.7,9.9,5.2,8C186.2,143.5,185,137.4,185,137.4z"/>
			<path style="fill:#FF8B66;" d="M218.3,143.2c0,0,5.6-4,5.2,1.7c-0.4,6.6-6.7,8.2-7.5,5.9C215.3,148.6,218.3,143.2,218.3,143.2z"
				/>
			<path style="fill:#FF8B66;" d="M197.4,163.4c-10.6-1.7-15.4-9.6-12-30.4c1.8-10.7,8.3-16.4,20.1-14.4c11.9,2,15.8,9.3,14,20
				C215.8,160.9,208.3,165.2,197.4,163.4z"/>
			
				<ellipse transform="matrix(1 -9.197052e-003 9.197052e-003 1 -1.3291 1.9586)" style="fill:#DB614D;" cx="212.3" cy="145.5" rx="2.5" ry="2"/>
			
				<ellipse transform="matrix(0.974 0.2266 -0.2266 0.974 37.1107 -39.4783)" style="fill:#DB614D;" cx="190.5" cy="141.9" rx="2.5" ry="2"/>
			<g>
				<path style="fill:#1A4850;" d="M211.8,133.9c0.1,0,0.2,0,0.3-0.1c0.2-0.2,0.3-0.5,0.1-0.7c-1.5-2.2-4.4-2.6-4.6-2.6
					c-0.3,0-0.6,0.2-0.6,0.5c0,0.3,0.2,0.6,0.5,0.6c0,0,2.6,0.4,3.8,2.1C211.5,133.8,211.6,133.9,211.8,133.9z"/>
			</g>
			<g>
				<path style="fill:#1A4850;" d="M191.9,130.6c0.1,0,0.2,0,0.3-0.1c1.7-1.3,4.3-0.8,4.3-0.8c0.3,0.1,0.6-0.1,0.6-0.4
					c0.1-0.3-0.1-0.6-0.4-0.6c-0.1,0-3.1-0.6-5.2,1c-0.2,0.2-0.3,0.5-0.1,0.8C191.5,130.6,191.7,130.6,191.9,130.6z"/>
			</g>
			
				<ellipse transform="matrix(0.9867 0.1628 -0.1628 0.9867 25.431 -32.0889)" style="fill:#1A4850;" cx="208.5" cy="139.2" rx="1.3" ry="2.4"/>
			
				<ellipse transform="matrix(0.9867 0.1628 -0.1628 0.9867 24.8646 -29.8212)" style="fill:#1A4850;" cx="194.4" cy="136.8" rx="1.3" ry="2.4"/>
			<path style="fill:#1A4850;" d="M191.8,149c0,0,9.2,2.5,14.3,1.5c0,0-3.5,4.4-8.5,3.2C192.5,152.3,191.8,149,191.8,149z"/>
			<path style="fill:#0E3944;" d="M191.3,123.4c0,0,11.9,8.6,26.9,9.3l-0.4,13.3c0,0,14-25.7-13.7-30.3
				c-27.6-4.6-19.6,24.2-19.6,24.2S185.4,127.5,191.3,123.4z"/>
			<g>
				<path style="fill:#DB614D;" d="M201.1,145.4l0.1-1.2c0,0-1.6-0.1-2-1.1c-0.2-0.4,0.5-1.7,1.1-2.8c0.8-1.6,1.9-3.6,2.3-5.8
					l-1.1-0.2c-0.4,2-1.4,3.9-2.2,5.5c-0.9,1.7-1.5,2.9-1.1,3.8C198.8,145.2,201,145.4,201.1,145.4z"/>
			</g>
			<path style="fill:#CE364C;" d="M184.9,123.4c20.1-8.7,39.1,9.4,39.1,9.4s2.2-14.6-1.7-18.1c-1-0.9-2.1-1.7-3.2-2.4
				c-8.9-5.6-20.7-5.5-26.1-3.6c-1.1,0.4-2,0.9-2.5,1.4C187.3,113.4,184.9,123.4,184.9,123.4z"/>
			<path style="fill:#CFD8DC;" d="M187.3,120.2c0,0,16.9-3.3,32.6,7.1c0,0,1-9.5-0.9-14.9c-8.9-5.6-20.7-5.5-26.1-3.6
				C189.8,112.3,187.3,120.2,187.3,120.2z"/>
			<path style="fill:#A02E44;" d="M222.2,131.1c0,0-2.7-11.4-6.3-14.6c-6-5.3-22.8-7.2-31.7-4s0,12.9,0,12.9
				S198.4,115.3,222.2,131.1z"/>
		</g>
		<path style="fill:#FF8B66;" d="M196.2,206.6c0,0-6.9,10.7-18.6,17c0,0-14.7-12.8-33.7-11.6c0,0,15.8,28.5,29.3,31.6
			c7.1,1.7,32.9-15.4,32.9-15.4S200.9,210,196.2,206.6z"/>
		<path style="fill:#ADBEC4;" d="M221.6,187.2c-6.3-10.3-20.9,4.9-25.8,15.8c-5,10.8-8.6,13.1-8.6,13.1s14.5,6.1,14.4,17
			C201.6,233.1,235.4,209.6,221.6,187.2z"/>
		<path style="fill:#EF6E4B;" d="M177.5,218.8c0,0-8.9-8.7-38-20l3.8-11.8c-3.3-4.4-9.5-4.4-9.5-4.4s-14.9,21.1-12.4,27.4
			C123.1,213.9,154.2,218,177.5,218.8z"/>
		<path style="fill:#FF8B66;" d="M145.6,201.6c0,0-0.2-1.2-1.3-2.8c-1.1-1.5-0.8-4.3-1.2-5.1c-0.4-0.9-2.7-4.4-4.2-5
			c-1.5-0.7-3.5-1.8-3.9,0.1c-0.4,1.9,2.7,1.4,4.1,4.2c0,0-3.1-1-5.5-0.4c-2.5,0.6-3.1,2.8-0.1,2.8c2.4-0.1,5.5,1.7,5.5,1.7
			s-3.2,0.5-2.6,1.9C137.1,200.9,140.9,199.7,145.6,201.6z"/>
	</g>
	<g style="display:inline;">
		<path style="fill:#CFD8DC;" d="M293.6,433.2c-1.1-0.6-2.1-1.8-3-3.4c0,0-0.8-4.7,0-9.7c0.8-4.9-1.4-9-8.4-10.5
			c-6.8-1.5-10.8,1.8-9.3,15.5c0,0,0,0,0,0c-1,5.7-1.2,12.2,1.1,17.6h21C295,442.8,298.3,435.7,293.6,433.2z"/>
		<path style="fill:#FF8B66;" d="M311.9,359.4c0,0,0,13.7-7.7,27.7c-7.8,14.3-17.5,33.8-17.5,33.8s-6.5,6.3-10.6-4.1
			c0,0,2.9-36.3,9.5-49.6C292.3,353.8,311.9,359.4,311.9,359.4z"/>
		<path style="fill:#FF8B66;" d="M412.4,315c0,0,12.5,52.5,20.4,66.3c0,0-1.8,5.8-10.4,7.5c0,0-27.1-39.9-28.9-56.7
			C391.8,315.3,412.4,315,412.4,315z"/>
		<g>
			<path style="fill:#8B383E;" d="M418.4,327.3c-3.3,8-29,8.4-29,8.4l-2-2.9l-0.5-0.8l-4-5.9c0,0-42.5-41.7-50.8-38.2h0
				c-0.2,0.1-0.5,0.2-0.7,0.4c-5.7,4.1-6.2,26.3-12.9,63.7c-0.6,3.5-2.1,7.7-3.2,10.5c-0.1,0.3-0.2,0.6-0.4,0.9
				c-0.6,1.6-1.1,2.6-1.1,2.6c-25.9,10.5-34.5-10.3-34.5-10.3s0.3-0.6,0.8-1.6c0.1-0.2,0.2-0.4,0.3-0.7c1.4-3,3.5-8.2,3.5-10.9
				c0-3-0.1-5.9-0.1-8.7c0-0.3,0-0.5,0-0.7c0-9,0-16.8,0-23.6v-0.7c0-3,0.1-5.7,0.1-8.3v-0.7c0.2-11.8,0.6-19.7,1-24.9
				c0-0.2,0-0.5,0.1-0.7c0.7-8.8,1.5-9.7,1.5-9.7l-5.2-36.1h56.7c0,0,8.5,8.5,19.6,19.8c0.2,0.2,0.5,0.4,0.7,0.7
				c4,4.1,8.3,8.5,12.7,13c0.2,0.2,0.4,0.4,0.5,0.5c1.7,1.8,3.4,3.5,5.1,5.3c0.2,0.2,0.4,0.4,0.6,0.6c5.7,5.9,11.2,11.7,15.9,16.8
				c0.2,0.2,0.3,0.3,0.5,0.5c6.5,7,11.4,12.6,13.1,15.2c4.5,6.9,8,15.8,9.9,21.4c0,0,0,0,0,0c0.1,0.3,0.2,0.5,0.3,0.7
				C417.9,325.6,418.4,327.3,418.4,327.3z"/>
			<g>
				<path style="fill:#662C33;" d="M295.2,270c-2.3,2.7-5.7,4.4-10,5c0-0.2,0-0.5,0.1-0.7c4.1-0.6,7.3-2.2,9.4-4.8
					c3.9-4.6,3.3-10.8,3.2-10.9l0.7-0.1C298.7,258.8,299.3,265.1,295.2,270z"/>
				<path style="fill:#662C33;" d="M358.5,248.9c-0.2,0-0.4,0-0.7,0c-6.3,0-12.9-6.9-13.2-7.2l0.5-0.5c0.1,0.1,6.6,7,12.7,7
					C358,248.5,358.2,248.7,358.5,248.9z"/>
				<path style="fill:#662C33;" d="M315.4,362.6c-0.1,0.3-0.2,0.6-0.4,0.9c-4.2,1.5-8.1,2.2-11.6,2.2c-11.2,0-19-6.5-23.2-11.4
					c0.1-0.2,0.2-0.4,0.3-0.7C286.1,360,297.7,369.4,315.4,362.6z"/>
				<path style="fill:#662C33;" d="M330.7,275c0.9,4,1.5,8.4,1.6,13c-0.2,0.1-0.5,0.2-0.7,0.4c0-21.1-12.3-37.6-12.4-37.8l0.6-0.4
					c0.1,0.1,7.4,9.9,10.8,24.1c1.4-0.9,2.4-2.3,2.8-4c1.8-7.4-6.3-19.5-6.3-19.7l0.6-0.4c0.3,0.5,8.3,12.5,6.4,20.2
					C333.5,272.4,332.4,274,330.7,275z"/>
				<path style="fill:#662C33;" d="M393.8,285.7c-2.1,2.3-4,4.2-4.2,4.4l-0.4,0.4l-0.2-0.5c-2.7-7.2-20.4-22.8-20.6-22.9l-0.2-0.2
					l2.9-4.9c0.2,0.2,0.4,0.4,0.5,0.5l-2.5,4.1c3.4,1.2,5.9,1.4,7.6,1.2c0.2,0.2,0.4,0.4,0.6,0.6c-0.6,0.1-1.2,0.2-1.8,0.2
					c-1.6,0-3.4-0.3-5.4-0.9c4,3.6,16.5,15.2,19.3,21.6c1.1-1.1,2.5-2.5,3.9-4C393.5,285.3,393.6,285.5,393.8,285.7z"/>
				<path style="fill:#662C33;" d="M297,333.8l-0.3,0.1c-0.3,0.1-3.4,0.7-7.1,0.7c-1.8,0-3.8-0.2-5.5-0.7c0-0.3,0-0.5,0-0.7
					c4.6,1.3,10.8,0.3,12.2,0l-1.2-29.1c-0.7,1.6-2,3.8-4.4,5c-1.2,0.6-2.5,0.9-3.9,0.9c-0.9,0-1.8-0.1-2.7-0.3v-0.7
					c2.4,0.6,4.5,0.4,6.3-0.5c3-1.5,4.1-4.6,4.5-5.9c-2.3,0.3-7.1-0.8-10.7-1.9v-0.7c3.9,1.2,9.1,2.5,11,1.9l0.4-0.2L297,333.8z"/>
				<path style="fill:#662C33;" d="M417,322.9c-4.1,4-12.4,10.2-25.3,10.2c-1.4,0-2.8-0.1-4.2-0.2l-0.5-0.8
					c15.6,1.8,25.4-5.5,29.8-9.9C416.9,322.5,416.9,322.7,417,322.9z"/>
			</g>
		</g>
		<path style="fill:#B71824;" d="M348.7,74.9c0,0-1.6-3.6-8.1-3.6c-5.1,0-7,2.8-7,2.8c-3,8.9-6.3,42.8-7.5,44
			c-0.6,0.6-38.2,25.9-38.2,25.9c20.4,0.4,33.2,25.5,33.2,25.5c0.7-8.3,23.7-41,24-44C345.5,120.2,355.2,95.6,348.7,74.9z"/>
		<path style="fill:#B71824;" d="M283.4,252.5c0,0-0.2,7.1,2.1,7.6c2.3,0.5,21,6,42.4-3.8c21.5-9.8,25.2-17,18.9-22.4
			C340.5,228.5,283.4,252.5,283.4,252.5z"/>
		<path style="fill:#ED1C24;" d="M274.8,149c0,0-19.5-2.3-30.7,2.5c0,0-3.1,13.9,12.3,44.9c15.4,31,11.8,50.6,29.2,57.9
			c15.4,6.5,60.8-12.9,62.2-19.3c3.6-16.2-24.2-44.6-25.9-61.1C320,157.4,303.9,132.7,274.8,149z"/>
		<path style="fill:#B71824;" d="M244,151.6c-13.7,4.8-29,20.2-29,27.6c0,7.4,12.8,10.2,12.8,10.2l21-10.2c0,0,6-4.2,2.2-16.4
			C247.2,150.4,244,151.6,244,151.6z"/>
		<g>
			<path style="fill:#CFD8DC;" d="M300.1,165.2c-4.1,0-9.1-1.5-12.3-3.7c-1.7-1.2-2.8-2.6-3-4c-0.8-4.8,4-7.3,4.2-7.4l0.6,1.2
				c-0.2,0.1-4,2.1-3.4,6c0.2,1,1,2.1,2.4,3.1c3.5,2.5,9.6,4,13.6,3.3c1.8-0.3,3-1,3.5-1.9c0.6-1.2,0.1-2.5,0.1-2.5l1.3-0.6
				c0,0.1,0.8,1.9-0.1,3.7c-0.7,1.4-2.2,2.2-4.5,2.6C301.8,165.2,301,165.2,300.1,165.2z"/>
		</g>
		<g>
			<path style="fill:#CFD8DC;" d="M282.8,180c-3,0-8-1.3-8.7-6.2c-0.4-2.5-0.1-4.6,0.1-6.5c0.3-2.7,0.5-4.9-1.1-7.5
				c-2.6-4.3-6.2-4.6-6.4-4.6l0.1-1.4c0.2,0,4.4,0.3,7.5,5.2c1.8,3,1.6,5.6,1.3,8.4c-0.2,1.9-0.4,3.8-0.1,6.1c0.8,5.4,7.6,5,7.9,5
				l0.1,1.4C283.2,180,283,180,282.8,180z"/>
		</g>
		<path style="fill:#B71824;" d="M287.1,154.9c0,0,10.3-7,7.9-14.6c-2.5-7.6-35.7-7.1-44.3,2c-8.6,9.1,18.6,15.1,18.6,15.1
			C271.3,153.1,284.8,152.7,287.1,154.9z"/>
		<path style="fill:#A02E44;" d="M268.5,153.7c-4.9-1.7-7.8-5.2-6.8-9.3c1.1-4.1,22.1-4.2,26.1-0.9S286.2,159.7,268.5,153.7z"/>
		<path style="fill:#EF6E4B;" d="M266.2,142.2c0,0,4.3,7.4,2.3,11.5c0,0,14.9,5.1,14.9-3.2c0,0-2.8-6.2-1.7-10.3L266.2,142.2z"/>
		<g>
			<path style="fill:#FFB878;" d="M261.2,135.7c0,0-7.3-11.7-6.6-22.9c0.3-5.6,3.2-7.8,3.2-7.8s-2.3-3.2,0.2-8.2c0,0,3.4,4,15.5,2.7
				c11.6-1.2,12.8,7.1,12.8,7.1c8.3,1.2,2.7,26.4-3.1,29H261.2z"/>
			<path style="fill:#FF8B66;" d="M258.1,124.9c0,0-4.2-4.2-4.7,0.7c-0.6,5.7,4.6,8,5.6,6.2C260,130,258.1,124.9,258.1,124.9z"/>
			<path style="fill:#FF8B66;" d="M287.5,125.2c0,0,4.2-4.2,4.7,0.7c0.6,5.7-4.6,8-5.6,6.2C285.7,130.3,287.5,125.2,287.5,125.2z"/>
			<path style="fill:#FF8B66;" d="M272.4,145.5c-9.3,0-14.6-6.1-14.6-24.3c0-9.4,4.8-15.2,15.2-15.2c10.4,0,14.8,5.8,14.8,15.2
				C287.9,140.7,282,145.5,272.4,145.5z"/>
			
				<ellipse transform="matrix(0.9851 -0.1719 0.1719 0.9851 -17.7951 50.4883)" style="fill:#DB614D;" cx="282.7" cy="128" rx="2.2" ry="1.7"/>
			
				<ellipse transform="matrix(0.9979 6.507868e-002 -6.507868e-002 0.9979 8.8892 -16.8749)" style="fill:#DB614D;" cx="263.5" cy="128" rx="2.2" ry="1.7"/>
			<g>
				<path style="fill:#FFB878;" d="M280.7,117.8c-0.1,0-0.2,0-0.4-0.1c-1.5-1.1-3.7-0.7-3.7-0.7c-0.2,0-0.5-0.1-0.5-0.4
					c0-0.3,0.1-0.5,0.4-0.5c0.1,0,2.7-0.5,4.5,0.9c0.2,0.2,0.2,0.4,0.1,0.7C280.9,117.8,280.8,117.8,280.7,117.8z"/>
			</g>
			<g>
				<path style="fill:#FFB878;" d="M262.8,117.9c-0.1,0-0.2-0.1-0.3-0.2c-0.2-0.2-0.1-0.5,0.1-0.7c1.8-1.4,4.4-1.1,4.5-1
					c0.3,0,0.4,0.3,0.4,0.5c0,0.3-0.3,0.4-0.5,0.4c0,0-2.3-0.3-3.7,0.8C263.1,117.9,263,117.9,262.8,117.9z"/>
			</g>
			<ellipse style="fill:#1A4850;" cx="278.6" cy="123.1" rx="1.2" ry="2.1"/>
			<ellipse style="fill:#1A4850;" cx="266.1" cy="123.1" rx="1.2" ry="2.1"/>
			<path style="fill:#FFB878;" d="M260.7,108c0,0,9.9,3.6,24.2,2.6c0,0,3,3.8,2.7,17.1c0,0,8.3-24.1-16-24.1s-13.4,23.5-13.4,23.5
				S256.1,112.5,260.7,108z"/>
			<g>
				<path style="fill:#DB614D;" d="M273,129.3l-0.7-0.7l1.8-1.8c-1.8-2.5-1.8-8.4-1.8-8.6l1,0c0,0.1,0,6.4,1.8,8.3l0.3,0.4
					L273,129.3z"/>
			</g>
			<path style="fill:#1A4850;" d="M266.8,132.4c0,0,9.2,0.4,13.8-0.8c0,0,0.8,6.7-6.3,7C266.8,138.9,266.8,132.4,266.8,132.4z"/>
		</g>
		<path style="fill:#CFD8DC;" d="M306,157.6c1.8-0.3,1.6,4.3,0,2.9C304.4,159.2,304.2,157.9,306,157.6z"/>
		<path style="fill:#CFD8DC;" d="M284.9,179.8c-0.3,1.8-4.5,0.1-2.8-1C283.9,177.8,285.1,178,284.9,179.8z"/>
		<path style="fill:#EF6E4B;" d="M266.1,189.4c0,0-2.8,7.1-2.6,11.2c0.2,4,1.5,3.5,1.5,3.5s-2.1,0.8-2.5,3.2c-0.4,2.3,5.5,4,5.9,4
			s4.5-1.6,4.5-1.6l0.9-13.2l-3.7-2.3L266.1,189.4z"/>
		<path style="fill:#FF8B66;" d="M268.3,188.4c0,0,5.1,3.2,7,5.1c2,1.9,0.8,16.8,0,17.5c-0.8,0.7-7.3,2.1-8.5,1.3
			c-1.2-0.8,0.5-5.2,0.5-5.2s3.2-0.7,2.8,0.5c-0.5,1.2,0,2.3,0,2.3l1.3-0.5c0,0-0.7-3.3,0-5.8c0.7-2.5-4.6-5-5.2-9.5
			C265.6,189.7,268.3,188.4,268.3,188.4z"/>
		<path style="fill:#B71824;" d="M215.9,181.2c-1.6-7,5.3-9.5,15-8.3c11.2,1.4,34.2,4.3,39.2,16.5c0,0,1.6,4.8-2.6,7.1
			C255.6,202.9,218.9,194.3,215.9,181.2z"/>
		<path style="fill:#A02E44;" d="M250.9,176.5c0,0-13.4-5.5-20-6.1C224.2,169.9,240.1,175.7,250.9,176.5z"/>
		<g>
			<path style="fill:#FF8B66;" d="M351,56.3c-1,1.1-2.7,5.6-2.7,5.6c-0.7,3.8-1.1,5.8-2.4,7.5c-1.3,1.7-0.6,4.8-0.6,4.8
				s-5.1,2.6-9.4-0.6c0,0,0.4-3,0-3.9c-0.9-1.7-3.7-2.6-4.7-6.1c-1-3.5-3.9-7.3-3.9-7.3s0.8-1.8,2.3-0.7c1.5,1.1,2.5,3.9,3.3,4.1
				c0.2,0.1,0.3,0.1,0.5,0.1c0,0,0,0,0,0c0.6,0.1,1.3-0.1,1.7-0.4c0,0,0.1,0,0.1-0.1c1.4-1.6,1.7-6.3,1.7-8.5c-0.1-2.9,0-7,1.8-6.3
				c1.8,0.7,0.2,2.3,1.5,8.8l0.7,0.1c0.1,0.5,1.4-3.9,1.7-8.1c0.2-2.8,2.1-1.8,2.5-0.9c0.4,0.9-0.2,3.7-0.3,5.8
				c-0.1,1.4-0.2,2.8-0.3,3.6l0.8,0.4c2.8-4.9,1.9-7,3.5-7.1c1.6-0.1,1.1,4.1,0.2,5.6c-0.4,0.7-0.7,2.1-1,3.5
				c2.9-3.3,2.6-5.1,3.9-4.9C353.2,51.9,352,55.2,351,56.3z"/>
			<path style="fill:#EF6E4B;" d="M338.5,64.1c-1-2.7-4.5-3.9-4.9-4.1c0.6,0.1,1.3-0.1,1.7-0.4C338.6,61.1,338.5,64.1,338.5,64.1z"
				/>
		</g>
		<g>
			<path style="fill:#CFD8DC;" d="M277.6,422.2c0,0-1.9-4-0.2-5.7c1.7-1.7,3.8,1.5,6.7,0.8c3-0.7,3.6-2.8,4.4,0.1
				C289.3,420.2,288.4,429.2,277.6,422.2z"/>
			<path style="fill:#ADBEC4;" d="M288.7,422c0,0-7.9,2.8-12,0l1,3.4c0,0,8.6,0.9,9.8-1.3L288.7,422z"/>
			<path style="fill:#ADBEC4;" d="M288.6,426.3c0,0-7.3-1-10.8,0.8v1.7c0,0,9.5-2.2,12.5,0L288.6,426.3z"/>
			<path style="fill:#ADBEC4;" d="M277.5,432.3c0,0,1.4-3.4,5.8-3.7c4.4-0.2,7.4,2.2,7.4,2.2S283.7,428,277.5,432.3z"/>
		</g>
		<g>
			<path style="fill:#CFD8DC;" d="M464.3,384.7c-13.9,18.6-32.9,22.2-32.9,22.2c-5.5-4.4-5.6-9.6-5.6-9.6s-5.3-4.7-6-7
				s4.6-9.1,7.7-8.4c2.2,0.5,3.4,2.2,4,3.2c-2.6-5.9-0.5-7.9,3.2-7.4c3.9,0.5,0.2,1.4,3,4.5c0.2,0.2,0.4,0.4,0.7,0.6
				c0.5,0.4,1.1,0.6,1.8,0.7c0.6,0.1,1.3,0.1,2,0.1c0.4,0,0.7-0.1,1.1-0.1c0.7-0.1,1.4-0.3,2.2-0.5c1.2-0.4,2.4-0.9,3.5-1.5
				c4.8-2.6,6.8-3.5,10.5-2.6c3.7,0.9,3.6,3.7,3.6,3.7L464.3,384.7z"/>
			<path style="fill:#ADBEC4;" d="M464.3,384.7c-13.9,18.6-32.9,22.2-32.9,22.2c9.7-4.2,18.6-9.6,24.6-16.3
				C462.1,383.8,464.3,384.7,464.3,384.7z"/>
			<g>
				<path style="fill:#ADBEC4;" d="M438.3,382.8c0.5,0.4,1.1,0.6,1.8,0.7c-3.7,0.7-3.9,4-3.9,4l-1.6-0.5
					C434.9,383.1,438,382.8,438.3,382.8z"/>
				<path style="fill:#ADBEC4;" d="M440.8,387.9l-1.6,0.1c-0.6-2.3,0.2-3.7,1-4.5c0.6,0.1,1.3,0.1,2,0.1
					C440.1,385.5,440.8,387.9,440.8,387.9z"/>
				<path style="fill:#ADBEC4;" d="M444.8,387l-1.6,0.2c-0.6-1.7-0.4-2.9,0-3.8c0.7-0.1,1.4-0.3,2.2-0.5
					C444,384.9,444.8,387,444.8,387z"/>
			</g>
		</g>
		<path style="fill:#B71824;" d="M288.9,214.3c0,0,3.6,19.4-3.7,27.1c-7.3,7.7-2.5,1.4-0.3-8.6C287.1,222.9,285.4,212.4,288.9,214.3
			z"/>
		<path style="fill:#B71824;" d="M322.4,205.7c0,0,11.5,3.8,17.5,14.4C339.9,220,331.9,202.8,322.4,205.7z"/>
	</g>
	<g style="display:inline;">
		<path style="fill:#1A3A43;" d="M189.6,106.8c0,0-7.9-5.4-19.5-1.2c-11.6,4.2-14.2,19.8-11.3,32.4c2.9,12.7-13.1,55.9-13.1,55.9
			s8.3,11.7,37.3,7.2c0,0,21.6-39.3,20-67.5C201.3,105.5,189.6,106.8,189.6,106.8z"/>
		<path style="fill:#E37050;" d="M198.7,155.6c10.9-3.5,17.6,5.6,23.8,22.5c6.2,16.9,8.3,18.6,8.3,18.6l24.1,15.5l-2,9
			c0,0-22.9-9-28.5-14.7c-5.5-5.7-21.5-34.6-21.5-34.6L198.7,155.6z"/>
		<path style="fill:#F38A6A;" d="M145.6,264.6c0,0-4.7,23.9-3.9,60c0,0-18.6,27.5-3.3,105.8h8.1c0,0,6.6-66.7,11.6-84.7
			c5-18.1,23.6-23.6,24.7-78.5L145.6,264.6z"/>
		<path style="fill:#F38A6A;" d="M108.8,335c-4.7-15.4-16.7-41.3-47.6-76.3c0,0-1.8-0.9-4.3,0.6c-2.6,1.6-2.6,3.5-2.6,3.5
			s15.5,33.8,25.4,58.5C82.9,329.5,91,335,99.9,335H108.8z"/>
		<path style="fill:#1F4352;" d="M165,364.8c0,0,0.1,11.5-7.5,11.7c-10.7,0.3-11.1-11.3-23.2-11c-12.1,0.4-37,3.4-45-15.5
			c-4.1-9.8,1.5-22.3-11.7-31.7c-13.2-9.4-6.8-20,0-25.7c6.8-5.7-2.9-11.9,4.2-14.7c1.7-0.7,3.4-0.6,4.9-0.1
			c0.9,0.3,1.8,0.8,2.6,1.3c3.7,2.5,6.4,6.8,6.4,6.8c20-54.9,55.7-62.1,55.7-62.1l35.3,12.2C187.5,321.4,165,364.8,165,364.8z"/>
		<path style="fill:#D0D6DA;" d="M198.7,155.6c0,0-8.2,2.8-19.9,1c-11.7-1.8-15.5-9.1-23.7-4.4c-12.3,7.1-6.6,31.5-3.5,44.2
			c1.2,4.7,2.6,17.2-0.2,27.5c0,0,16.4,12.8,35.3,12.2l10.3-22.3C197,213.7,219.3,187,198.7,155.6z"/>
		<path style="fill:#E37050;" d="M177.8,135.1c0,0,1.4,11.6-2.9,22.1c0,0,6.1,9,11.9,3.1c0,0,0.5-10.6,7.1-22.6
			C198.3,129.6,177.8,135.1,177.8,135.1z"/>
		<g>
			<path style="fill:#F38A6A;" d="M168.5,135.5c0,0-5.2-3.3-4.6,1.8c0.7,5.8,6.4,7,7,4.9C171.5,140.1,168.5,135.5,168.5,135.5z"/>
			<path style="fill:#F38A6A;" d="M198,129.2c0,0,3.3-5.1,4.9-0.3c1.9,5.6-2.8,9-4.2,7.4C197.3,134.6,198,129.2,198,129.2z"/>
			<path style="fill:#F38A6A;" d="M187.4,152.9c-9.3,2.1-16-2.8-20.1-21.1c-2.1-9.4,1.4-16.3,11.9-18.6c10.5-2.3,16.2,2.5,18.3,11.9
				C201.8,144.7,197,150.7,187.4,152.9z"/>
			
				<ellipse transform="matrix(0.9238 -0.3829 0.3829 0.9238 -36.1804 84.3357)" style="fill:#D06250;" cx="193.8" cy="133.1" rx="2.2" ry="1.8"/>
			
				<ellipse transform="matrix(0.988 -0.1546 0.1546 0.988 -19.1329 28.6237)" style="fill:#D06250;" cx="174.5" cy="137.4" rx="2.2" ry="1.8"/>
			<g>
				<path style="fill:#1A3A43;" d="M189.3,123.7c-0.1,0-0.2,0-0.3-0.1c-1.6-1.1-3.9-0.5-3.9-0.5c-0.3,0.1-0.5-0.1-0.6-0.3
					c-0.1-0.3,0.1-0.5,0.3-0.6c0.1,0,2.7-0.7,4.7,0.6c0.2,0.1,0.3,0.4,0.1,0.7C189.6,123.6,189.5,123.7,189.3,123.7z"/>
			</g>
			<g>
				<path style="fill:#1A3A43;" d="M171.7,127.6c-0.1,0-0.2,0-0.2-0.1c-0.2-0.1-0.3-0.4-0.2-0.7c1.2-2,3.8-2.5,3.9-2.6
					c0.3,0,0.5,0.1,0.6,0.4c0,0.3-0.1,0.5-0.4,0.6c0,0-2.3,0.5-3.3,2.1C172,127.5,171.9,127.6,171.7,127.6z"/>
			</g>
			
				<ellipse transform="matrix(0.9758 -0.2185 0.2185 0.9758 -23.6436 44.3115)" style="fill:#1A464F;" cx="188.5" cy="129.1" rx="1.2" ry="2.2"/>
			
				<ellipse transform="matrix(0.9758 -0.2185 0.2185 0.9758 -24.5669 41.5424)" style="fill:#1A464F;" cx="175.6" cy="131.9" rx="1.2" ry="2.2"/>
			<path style="fill:#1A464F;" d="M180.9,142.6c0,0,6-0.5,8.6-2.7c0,0-0.7,4.7-4,5C182.3,145.2,180.9,142.6,180.9,142.6z"/>
			<path style="fill:#1A464F;" d="M186.4,128.9c0,0,0.2-3,1.4-3.1c1.2,0,2.6,2.2,2.6,2.2l1.5-1.2l-1.6,0.6c0,0-1.4-2.4-2.5-2.1
				C186.1,125.6,186.4,128.9,186.4,128.9z"/>
			<path style="fill:#1A464F;" d="M177.5,131.3c0,0-1.5-2.7-2.6-2.2c-1.1,0.5-1.4,3.1-1.4,3.1l-1.9-0.5l1.7-0.2c0,0,0.3-2.7,1.4-3
				C176.3,128.2,177.5,131.3,177.5,131.3z"/>
			<g>
				<path style="fill:#D06250;" d="M184,137.2l-0.5-0.9c0.8-0.4,0.8-1,0.8-1.4c-0.1-0.6-0.6-1-0.9-1c-0.2,0-0.3,0.1-0.5,0.5l-1-0.4
					c0.4-1.1,1.2-1.2,1.5-1.2c0.8,0.1,1.6,0.9,1.8,1.8C185.5,135.7,185,136.6,184,137.2z"/>
			</g>
			<path style="fill:#1A3A43;" d="M169.2,138.8c0,0-2.9-10.6-1.2-18.1c0,0,8.1-11.3,23.8-5.7c0,0,4.7,7.5,7,18c0,0,0.6-3.8-1-12.2
				c-1.6-8.4-9-13.6-19.2-11.9C168.4,110.5,157.5,120.7,169.2,138.8z"/>
		</g>
		<path style="fill:#1A3A43;" d="M185.7,112.6c0,0,0.6,2.8-2.1,9.9c0,0-1.9-2-4.2,0c-2.3,2-6.9,1.3-8.4,2.4
			c-1.6,1.1-1.6,3.6-1.6,3.6s-1.4-3.1,0-6.8c0,0-3.1,3.9-2.7,8.7c0,0-4.1-0.7-4-7.5c0.2-6.8,9.9-17.9,20.8-17.2
			c10.9,0.7,13.5,18,13.5,18s-1-0.8-2.6-0.4c0,0-0.2-3.7-2.7-8.3c0,0,1.1,3.3,0,6.9c0,0-3-1.6-5.4-1.1
			C186.4,120.8,187.9,117.9,185.7,112.6z"/>
		<path style="fill:#F38A6A;" d="M152.3,154.3c5.3-4.2,9.4,1.1,10.5,8.5c1,7.4-8.6,50.8-16,49.2c-2.9-0.6-4-12-4-12
			s2.9-12.2,4.8-30.6C148.4,161,149.5,156.5,152.3,154.3z"/>
		<path style="fill:#F38A6A;" d="M136.8,205.9c-7.2-6.8-20-29.4-23.2-40.9l5.4-2.2c0,0,16.3,23.4,23.8,29.3
			c7.4,5.9,10.1,12.5,6.7,18.1C146.2,215.8,138.3,207.4,136.8,205.9z"/>
		<g>
			<path style="fill:#F38A6A;" d="M115.8,149.9c-0.4,7.4,5.7,9.1,3,14.8c-0.6,1.2-1.4,1.8-2.3,2.1c-1.7,0.6-3.5,0-4.7-1.2
				c-2.9-2.9-7.3-6-9.6-7.3c-2.7-1.5-1.2-2-1.2-2c-0.3-0.1-0.5-0.2-0.8-0.3c-1.9-0.8-3.4-1.1-2.1-2c1.6-1,7.1,1.1,7.1,1.1
				c-7.2-4.8-9.2-3.6-7.8-4.6c1.8-1.4,8.6,1.8,8.8,1.9c-3.8-3.6-6.6-4.4-5.1-5c1.5-0.5,9.1,4.9,11.8,6.9c0.6,0.5,1,0.8,1,0.8
				C113.9,149.1,115.8,149.9,115.8,149.9z"/>
			<path style="fill:#E37050;" d="M113,154.4c0.6,0.5,1,0.8,1,0.8s-1.3,2.2,0.4,5C114.4,160.1,111.4,158.1,113,154.4z"/>
			<path style="fill:#E37050;" d="M106.7,158.6c-0.6-0.4-4.3-2.4-5.7-2.3c-0.3-0.1-0.5-0.2-0.8-0.3
				C101.2,154.7,106,158.1,106.7,158.6z"/>
		</g>
		<g>
			<circle style="fill:#6093AB;" cx="133.8" cy="268.3" r="1.5"/>
			<circle style="fill:#6093AB;" cx="159.7" cy="278.3" r="1.5"/>
			<circle style="fill:#6093AB;" cx="181.8" cy="283.7" r="1.5"/>
			<circle style="fill:#6093AB;" cx="147.9" cy="249.3" r="1.5"/>
			<circle style="fill:#6093AB;" cx="152.8" cy="263.2" r="1.5"/>
			<circle style="fill:#6093AB;" cx="175.8" cy="271" r="1.5"/>
			<circle style="fill:#6093AB;" cx="178.9" cy="247.2" r="1.5"/>
			<circle style="fill:#6093AB;" cx="163.9" cy="242.3" r="1.5"/>
			<circle style="fill:#6093AB;" cx="121" cy="296.7" r="1.5"/>
			<circle style="fill:#6093AB;" cx="100.2" cy="290.5" r="1.5"/>
			<path style="fill:#6093AB;" d="M89.4,279.1c-0.3,0.4-0.7,0.6-1.2,0.6c-0.8,0-1.5-0.6-1.5-1.5c0-0.2,0-0.3,0.1-0.5
				C87.7,278.1,88.5,278.6,89.4,279.1z"/>
			<circle style="fill:#6093AB;" cx="128.4" cy="315.6" r="1.5"/>
			<circle style="fill:#6093AB;" cx="91.2" cy="336.2" r="1.5"/>
			<circle style="fill:#6093AB;" cx="106.4" cy="323.7" r="1.5"/>
			<circle style="fill:#6093AB;" cx="83.8" cy="312.7" r="1.5"/>
			<circle style="fill:#6093AB;" cx="102" cy="356.2" r="1.5"/>
			<circle style="fill:#6093AB;" cx="115.9" cy="279.8" r="1.5"/>
			<circle style="fill:#6093AB;" cx="129.8" cy="255.3" r="1.5"/>
			<circle style="fill:#6093AB;" cx="145.6" cy="234.9" r="1.5"/>
			<circle style="fill:#6093AB;" cx="113.6" cy="264.6" r="1.5"/>
			<circle style="fill:#6093AB;" cx="131.3" cy="240.8" r="1.5"/>
			<circle style="fill:#6093AB;" cx="103.5" cy="306.2" r="1.5"/>
			<circle style="fill:#6093AB;" cx="85.2" cy="293.4" r="1.5"/>
			<circle style="fill:#6093AB;" cx="138.2" cy="289" r="1.5"/>
			<circle style="fill:#6093AB;" cx="168.2" cy="296.7" r="1.5"/>
			<circle style="fill:#6093AB;" cx="166.8" cy="255.3" r="1.5"/>
			<circle style="fill:#6093AB;" cx="184.2" cy="258.3" r="1.5"/>
			<circle style="fill:#6093AB;" cx="149.3" cy="307.7" r="1.5"/>
			<circle style="fill:#6093AB;" cx="136.7" cy="333.5" r="1.5"/>
			<circle style="fill:#6093AB;" cx="114.4" cy="337.7" r="1.5"/>
			<circle style="fill:#6093AB;" cx="175.8" cy="315.6" r="1.5"/>
			<circle style="fill:#6093AB;" cx="155.7" cy="326.6" r="1.5"/>
			<circle style="fill:#6093AB;" cx="125.5" cy="359.1" r="1.5"/>
			<circle style="fill:#6093AB;" cx="147.9" cy="351.5" r="1.5"/>
			<circle style="fill:#6093AB;" cx="169.5" cy="343" r="1.5"/>
			<circle style="fill:#6093AB;" cx="159.7" cy="368" r="1.5"/>
		</g>
		<g>
			<path style="fill:#1F4352;" d="M159.6,444.5h-23.9c-1.6-4.4,1.3-8.9,0.8-12.8c-0.8-6.6,3-3,3-3c0.7-7.1,10.7-8.5,10.6-5.3
				c-0.2,4.7,0.7,7.6,2.1,9.5c2.7,3.9,7.1,3.9,7.9,6.6c0.1,0.3,0.1,0.5,0.2,0.8C161,443.8,159.6,444.5,159.6,444.5z"/>
			<path style="fill:#24515E;" d="M160.3,440.3c-4.9,1.1-16.3-0.3-16.8-3.2c-0.4-2.8,5.7-4.1,8.8-4.2c2.7,3.9,7.1,3.9,7.9,6.6
				C160.2,439.8,160.2,440.1,160.3,440.3z"/>
		</g>
		<g>
			<path style="fill:#1F4352;" d="M61.5,259.6c-2.5-2.3-6.7,1.5-6.7,1.5s2.2,3.3,0.8,4.6c-1.4,1.3-3.1-1.7-5.9-0.4
				c-0.2,0.1-0.5,0.2-0.7,0.4c-2.2,1.3-4.5,4.1-6.4,6.2c-0.4,0.4-0.7,0.8-1.1,1.2c-2.2,2.3-7.7,3.6-8.8-2.4c-1-6,5.8-13.1,13.2-19.7
				c7.5-6.5,12.3-2.6,12.3-2.6s1.7,2.7,1.7,4.4c0,1.7,1.5,2.5,2.4,4.2C63.2,258.6,61.5,259.6,61.5,259.6z"/>
			<path style="fill:#24515E;" d="M49,265.7c-2.2,1.3-4.5,4.1-6.4,6.2c-2.8,0.7-5.3,0.5-5.7-2.2c-1-6.3,11.7-14.4,10.7-10
				C47.1,262,48,264.2,49,265.7z"/>
		</g>
	</g>
</g>
<g id="DESIGNED_BY_FREEPIK">
</g>
</svg>
