<?xml version="1.0" encoding="utf-8"?>
<!-- Generator: Adobe Illustrator 17.1.0, SVG Export Plug-In . SVG Version: 6.00 Build 0)  -->
<!DOCTYPE svg PUBLIC "-//W3C//DTD SVG 1.0//EN" "http://www.w3.org/TR/2001/REC-SVG-20010904/DTD/svg10.dtd">
<svg version="1.0" xmlns="http://www.w3.org/2000/svg" xmlns:xlink="http://www.w3.org/1999/xlink" x="0px" y="0px"
	 viewBox="0 0 500 500" style="enable-background:new 0 0 500 500;" xml:space="preserve">
<g id="BACKGROUND">
	<g style="opacity:0;">
		<rect x="0" y="0" style="fill:#FFFFFF;" width="500" height="500"/>
	</g>
	<path style="fill:#ED1C24;" d="M247.7,45h185.4c9.8,0,17.7,8,17.7,17.8v117.4c0,9.8-7.9,17.8-17.7,17.8H308
		c-9,12.6-25.4,35.3-26.9,35.3c-1.4,0,1.3-21.4,3.1-35.3h-36.5c-9.8,0-17.7-8-17.7-17.8V62.8C230,53,237.9,45,247.7,45z"/>
	<path style="fill:#FFFFFF;" d="M430.2,105.4H384h0h-43.9c-0.3,0-0.5,0.2-0.5,0.5v6.9c0,0.3,0.2,0.5,0.5,0.5H384h2.2h43.9
		c0.3,0,0.5-0.2,0.5-0.5v-6.9C430.7,105.6,430.5,105.4,430.2,105.4z"/>
	<path style="fill:#FFFFFF;" d="M250.9,113.4h75.2c0.3,0,0.5-0.2,0.5-0.5v-7c0-0.3-0.2-0.5-0.5-0.5h-75.2c-0.3,0-0.5,0.2-0.5,0.5v7
		C250.4,113.2,250.6,113.4,250.9,113.4z"/>
	<path style="fill:#FFFFFF;" d="M250.6,87.2h100.3c0.3,0,0.5-0.2,0.5-0.5v-7c0-0.3-0.2-0.5-0.5-0.5H250.6c-0.3,0-0.5,0.2-0.5,0.5v7
		C250.1,86.9,250.3,87.2,250.6,87.2z"/>
	<path style="fill:#FFFFFF;" d="M369,87.2h61.3c0.3,0,0.5-0.2,0.5-0.5v-7c0-0.3-0.2-0.5-0.5-0.5H369c-0.3,0-0.5,0.2-0.5,0.5v7
		C368.5,86.9,368.7,87.2,369,87.2z"/>
	<polygon style="fill:#FFFFFF;" points="250.1,164.8 430.7,164.8 430.7,164.8 430.7,156.8 250.1,156.8 	"/>
	<rect x="344.8" y="131.4" style="fill:#FFFFFF;" width="85.9" height="8"/>
	<rect x="250.4" y="131.4" style="fill:#FFFFFF;" width="85.9" height="8"/>
	<path style="fill:#8A00EE;" d="M242.6,244.7H57.3c-9.8,0-17.7,8-17.7,17.8v117.4c0,9.8,7.9,17.8,17.7,17.8h125.1
		c9,12.6,25.4,35.3,26.9,35.3c1.4,0-1.3-21.4-3.1-35.3h36.5c9.8,0,17.7-8,17.7-17.8V262.5C260.4,252.7,252.4,244.7,242.6,244.7z"/>
	<path style="fill:#FFFFFF;" d="M60.2,305h46.2h0h43.9c0.3,0,0.5,0.2,0.5,0.5v6.9c0,0.3-0.2,0.5-0.5,0.5h-43.9h-2.2H60.2
		c-0.3,0-0.5-0.2-0.5-0.5v-6.9C59.6,305.3,59.9,305,60.2,305z"/>
	<path style="fill:#FFFFFF;" d="M239.5,313.1h-75.2c-0.3,0-0.5-0.2-0.5-0.5v-7c0-0.3,0.2-0.5,0.5-0.5h75.2c0.3,0,0.5,0.2,0.5,0.5v7
		C240,312.9,239.7,313.1,239.5,313.1z"/>
	<path style="fill:#FFFFFF;" d="M239.8,286.8H139.5c-0.3,0-0.5-0.2-0.5-0.5v-7c0-0.3,0.2-0.5,0.5-0.5h100.3c0.3,0,0.5,0.2,0.5,0.5v7
		C240.3,286.6,240.1,286.8,239.8,286.8z"/>
	<path style="fill:#FFFFFF;" d="M121.4,286.8H60.1c-0.3,0-0.5-0.2-0.5-0.5v-7c0-0.3,0.2-0.5,0.5-0.5h61.3c0.3,0,0.5,0.2,0.5,0.5v7
		C121.9,286.6,121.7,286.8,121.4,286.8z"/>
	<polygon style="fill:#FFFFFF;" points="240.3,364.5 59.6,364.5 59.6,364.5 59.6,356.5 240.3,356.5 	"/>
	<rect x="59.6" y="331.1" style="fill:#FFFFFF;" width="85.9" height="8"/>
	<rect x="154.1" y="331.1" style="fill:#FFFFFF;" width="85.9" height="8"/>
</g>
<g id="OBJECTS" style="display:none;">
	<g style="display:inline;">
		<g>
			<path style="fill:#164353;" d="M97.8,407.2c0,1.2,0.1,2,0.1,2h34.2c0-0.7,0-1.4,0-2c-0.4-9-3.2-16.7-3.2-16.7l-8.6-3.7
				c-0.7,4.4-2.6,7.2-5,9.1c-0.6,0.5-1.3,0.9-2,1.3c-0.3,0.2-0.6,0.3-1,0.5c-0.7,0.3-1.5,0.6-2.2,0.8c-3,0.9-6.1,1.1-8.2,1.4
				C98.3,400.4,97.8,404.6,97.8,407.2z"/>
			<path style="fill:#225866;" d="M97.8,407.2c0,1.2,0.1,2,0.1,2h34.2c0-0.7,0-1.4,0-2H97.8z"/>
			<path style="fill:#225866;" d="M113.3,397.1l4.7,1.5l1-1.7l-3.8-1C114.7,396.4,114,396.8,113.3,397.1z"/>
			<path style="fill:#225866;" d="M110.2,398.4l3.2,2.1l2-0.8l-3-2.2C111.7,397.9,110.9,398.2,110.2,398.4z"/>
		</g>
		<g>
			<path style="fill:#164353;" d="M228.6,407.2c0.1,1.2,0.4,2,0.4,2h22.8c0.3-0.7,0.5-1.3,0.6-2c2.2-10.9-12.9-24.3-12.9-24.3
				l-4.8,6.4c0,0,0.6,10.3-3.5,12.4C228.7,403.1,228.4,405.5,228.6,407.2z"/>
			<path style="fill:#225866;" d="M252.4,407.2h-23.8c0.1,1.2,0.4,2,0.4,2h22.8C252.1,408.6,252.3,407.9,252.4,407.2z"/>
			<path style="fill:#225866;" d="M232.2,401c0,0,9.6-2.2,14,0.6V400C246.2,400,238.1,396.1,232.2,401z"/>
			<path style="fill:#225866;" d="M234.1,398.5c0,0,6.1-2.8,12.1,0l-0.7-1.6C245.5,396.9,238.4,394.2,234.1,398.5z"/>
		</g>
		<path style="fill:#8BBDDB;" d="M108.1,310.2c0,9.2,8.1,84,8.1,84c8.1,0.8,14.7-0.8,14.7-0.8c2.2-37.9,2.5-70.5,2.5-70.5l39-29.3
			l0.1-0.1c0,0,0.1,0.7,0.4,1.8c1.9,8.6,10.1,44.5,13.5,52.8c3.9,9.4,46.3,48.8,46.3,48.8c7.9-1.1,14.6-6.8,14.6-6.8
			c-15.2-25.3-36-50.6-36-50.6c-1.6-9.1-2.8-29.3-3.5-44.5c0-0.2,0-0.5,0-0.7c-0.5-10.2-0.7-18-0.7-18l7.2-14.7L168.8,245l-10.2,13
			c0,0-2.3,2.2-6,5.6c-0.2,0.2-0.3,0.3-0.5,0.5C138.5,277,108.1,306.1,108.1,310.2z"/>
		<g>
			<path style="fill:#6097B2;" d="M207.8,295.1c0-0.2,0-0.5,0-0.7c-9.6-5.2-8-13.5-7.9-13.6l-0.6-0.1
				C199.2,280.8,197.5,289.7,207.8,295.1z"/>
			<path style="fill:#6097B2;" d="M173.1,287.7c-0.3,1.8-0.6,3.8-0.7,5.9l0.1-0.1c0,0,0.1,0.7,0.4,1.8c0.4-14.2,6.3-22.6,6.4-22.7
				l-0.5-0.4c-0.1,0.1-3.8,5.4-5.5,14.7c-6.9-6.1-0.1-18.7-0.1-18.8l-0.5-0.3C172.5,268,165.4,281.3,173.1,287.7z"/>
			<path style="fill:#6097B2;" d="M152.1,264.1C152.1,264.1,152.1,264.1,152.1,264.1c0.3,0.1,0.7,0.2,1,0.2c3.3,0,9-4.7,9.2-4.9
				l-0.4-0.5c-1.8,1.5-6.9,5.3-9.3,4.7C152.4,263.8,152.3,264,152.1,264.1z"/>
		</g>
		<path style="fill:#ADBEC4;" d="M211.1,183.5c0,0-13.8-2.2-20.8,2.2s-16,15.9-16,15.9s10.8,1.4,12,8.8
			C186.3,210.4,194.2,191.7,211.1,183.5z"/>
		<path style="fill:#CFD8DC;" d="M231.9,190.7c5.8,3.2,15.6,15,16.1,22.3c0.4,7.1-4.8,13.7-8.4,19.2c-11.1,17.4-22.8,32.7-27.7,53.1
			c0,0.1-25.4,10.2-55.1-25.6c0,0,16.8-22.6,22.6-41.9c2.4-7.8,4.8-16.2,9.3-23.1c5-7.6,13.6-12.1,22.5-11.4
			C218.6,184.1,226.1,187.6,231.9,190.7z"/>
		<path style="fill:#EF6E4B;" d="M234.3,183.4c0,0-3.7,6.4-2,9.9c0,0-12.8,4.4-12.8-2.8c0,0,2.4-5.4,1.5-8.9L234.3,183.4z"/>
		<path style="fill:#EF6E4B;" d="M205.8,227.2c0,0,7.1,2,8.9,4.6c1.8,2.5,3.4,8.2,3.4,8.2h-12.3l-2.3-4.3l-2.7-5.7L205.8,227.2z"/>
		<g>
			<path style="fill:#164353;" d="M217.6,176.3c0,0-5-2.1-1.8-17.2c2.1-10,5.2-11.5,7.2-11.6c0,0,2.4-3.7,10.9-1.9
				c5.8,1.2,10.5,4.7,12.5,11.3c2.1,6.8-2.1,21.4-7.7,22.9L217.6,176.3z"/>
			<path style="fill:#FF8B66;" d="M216.4,166.1c0,0-3.2-4.4-4.4-0.1c-1.4,5,2.9,7.8,4.1,6.4C217.3,170.9,216.4,166.1,216.4,166.1z"
				/>
			<path style="fill:#FF8B66;" d="M242.9,170.7c0,0,4.4-3.1,4.1,1.3c-0.3,5.2-5.3,6.5-5.9,4.7C240.4,175,242.9,170.7,242.9,170.7z"
				/>
			<path style="fill:#FF8B66;" d="M226.2,186.7c-8.4-1.4-12.2-7.6-9.5-24.1c1.4-8.5,6.6-13,16-11.4c9.4,1.6,12.5,7.4,11.1,15.9
				C240.9,184.8,234.9,188.1,226.2,186.7z"/>
			
				<ellipse transform="matrix(1 -9.197052e-003 9.197052e-003 1 -1.5765 2.1967)" style="fill:#DB614D;" cx="238.1" cy="172.5" rx="2" ry="1.6"/>
			
				<ellipse transform="matrix(0.974 0.2266 -0.2266 0.974 44.1918 -45.617)" style="fill:#DB614D;" cx="220.8" cy="169.7" rx="2" ry="1.6"/>
			<g>
				<path style="fill:#1A4850;" d="M237.7,163.3c0.1,0,0.2,0,0.2-0.1c0.2-0.1,0.2-0.4,0.1-0.6c-1.2-1.7-3.5-2.1-3.6-2.1
					c-0.2,0-0.4,0.1-0.5,0.4c0,0.2,0.1,0.4,0.4,0.5c0,0,2.1,0.3,3,1.7C237.4,163.3,237.5,163.3,237.7,163.3z"/>
			</g>
			<g>
				<path style="fill:#1A4850;" d="M221.9,160.7c0.1,0,0.2,0,0.3-0.1c1.4-1,3.4-0.6,3.4-0.6c0.2,0.1,0.5-0.1,0.5-0.3
					c0-0.2-0.1-0.5-0.3-0.5c-0.1,0-2.4-0.5-4.1,0.8c-0.2,0.1-0.2,0.4-0.1,0.6C221.6,160.7,221.7,160.7,221.9,160.7z"/>
			</g>
			
				<ellipse transform="matrix(0.9867 0.1628 -0.1628 0.9867 30.3975 -36.0306)" style="fill:#1A4850;" cx="235.1" cy="167.5" rx="1.1" ry="1.9"/>
			
				<ellipse transform="matrix(0.9867 0.1628 -0.1628 0.9867 29.949 -34.2331)" style="fill:#1A4850;" cx="223.9" cy="165.6" rx="1.1" ry="1.9"/>
			<path style="fill:#1A4850;" d="M221.8,175.3c0,0,7.3,2,11.3,1.2c0,0-2.8,3.5-6.8,2.5C222.3,177.9,221.8,175.3,221.8,175.3z"/>
			<path style="fill:#0E3944;" d="M221.4,155c0,0,9.5,6.9,21.4,7.4l-0.3,10.6c0,0,11.1-20.4-10.8-24c-21.9-3.6-15.5,19.2-15.5,19.2
				S216.8,158.3,221.4,155z"/>
			<g>
				<path style="fill:#DB614D;" d="M229.2,172.4l0.1-0.9c0,0-1.3-0.1-1.6-0.9c-0.1-0.3,0.4-1.3,0.9-2.3c0.7-1.3,1.5-2.8,1.8-4.6
					l-0.9-0.2c-0.3,1.6-1.1,3.1-1.7,4.3c-0.7,1.3-1.2,2.3-0.9,3C227.3,172.3,229.1,172.4,229.2,172.4z"/>
			</g>
			<path style="fill:#CE364C;" d="M216.3,155c15.9-6.9,31,7.4,31,7.4s1.8-11.6-1.3-14.3c-0.8-0.7-1.7-1.3-2.6-1.9
				c-7-4.4-16.4-4.4-20.7-2.8c-0.9,0.3-1.6,0.7-1.9,1.1C218.2,147.1,216.3,155,216.3,155z"/>
			<path style="fill:#CFD8DC;" d="M218.2,152.4c0,0,13.4-2.6,25.9,5.6c0,0,0.8-7.5-0.7-11.8c-7-4.4-16.4-4.4-20.7-2.8
				C220.2,146.2,218.2,152.4,218.2,152.4z"/>
			<path style="fill:#A02E44;" d="M245.9,161.1c0,0-2.1-9-5-11.5c-4.8-4.2-18.1-5.7-25.1-3.1s0,10.2,0,10.2S227,148.6,245.9,161.1z"
				/>
		</g>
		<path style="fill:#FF8B66;" d="M225.3,220.9c0,0-5.5,8.5-14.8,13.5c0,0-11.6-10.1-26.8-9.2c0,0,12.5,22.6,23.3,25.1
			c5.6,1.3,26.1-12.2,26.1-12.2S229,223.7,225.3,220.9z"/>
		<path style="fill:#ADBEC4;" d="M245.4,205.6c-5-8.1-16.5,3.9-20.5,12.5c-3.9,8.6-6.8,10.4-6.8,10.4s11.5,4.8,11.5,13.5
			C229.6,242,256.3,223.4,245.4,205.6z"/>
		<path style="fill:#EF6E4B;" d="M210.5,230.7c0,0-7-6.9-30.1-15.9l3-9.4c-2.6-3.5-7.5-3.5-7.5-3.5s-11.8,16.7-9.8,21.7
			C167.3,226.7,192,230,210.5,230.7z"/>
		<path style="fill:#FF8B66;" d="M185.2,217c0,0-0.2-1-1-2.2c-0.9-1.2-0.6-3.4-0.9-4.1c-0.3-0.7-2.1-3.5-3.3-4
			c-1.2-0.5-2.8-1.4-3.1,0.1c-0.3,1.5,2.2,1.1,3.3,3.3c0,0-2.5-0.8-4.4-0.3c-1.9,0.5-2.5,2.2-0.1,2.2c1.9,0,4.4,1.3,4.4,1.3
			s-2.5,0.4-2.1,1.5C178.4,216.5,181.5,215.5,185.2,217z"/>
	</g>
	<g style="display:inline;">
		<path style="fill:#CFD8DC;" d="M302.5,400.6c-0.9-0.5-1.7-1.5-2.4-2.7c0,0-0.6-3.7,0-7.7c0.6-3.9-1.1-7.1-6.6-8.3
			c-5.4-1.2-8.6,1.4-7.4,12.3c0,0,0,0,0,0c-0.8,4.5-1,9.7,0.9,14h16.6C303.6,408.2,306.2,402.6,302.5,400.6z"/>
		<path style="fill:#FF8B66;" d="M317.1,342.2c0,0,0,10.8-6.1,21.9c-6.2,11.3-13.9,26.8-13.9,26.8s-5.1,5-8.4-3.3
			c0,0,2.3-28.8,7.6-39.4C301.5,337.7,317.1,342.2,317.1,342.2z"/>
		<path style="fill:#FF8B66;" d="M396.7,306.9c0,0,9.9,41.6,16.2,52.6c0,0-1.4,4.6-8.3,6c0,0-21.5-31.6-22.9-45
			C380.3,307.2,396.7,306.9,396.7,306.9z"/>
		<g>
			<path style="fill:#8B383E;" d="M401.5,316.7c-2.6,6.3-23,6.7-23,6.7l-1.6-2.3l-0.4-0.6l-3.2-4.7c0,0-33.7-33-40.2-30.3h0
				c-0.2,0.1-0.4,0.2-0.6,0.3c-4.5,3.2-4.9,20.9-10.3,50.5c-0.5,2.8-1.6,6.1-2.5,8.3c-0.1,0.2-0.2,0.5-0.3,0.7
				c-0.5,1.3-0.8,2.1-0.8,2.1c-20.6,8.3-27.3-8.1-27.3-8.1s0.2-0.5,0.6-1.2c0.1-0.2,0.2-0.4,0.3-0.6c1.1-2.4,2.8-6.5,2.8-8.7
				c0-2.4,0-4.7-0.1-6.9c0-0.2,0-0.4,0-0.6c0-7.1,0-13.3,0-18.7v-0.6c0-2.3,0.1-4.5,0.1-6.6V295c0.2-9.4,0.5-15.6,0.8-19.8
				c0-0.2,0-0.4,0-0.6c0.6-7,1.2-7.7,1.2-7.7l-4.1-28.6h44.9c0,0,6.8,6.8,15.5,15.7c0.2,0.2,0.4,0.4,0.5,0.5
				c3.2,3.2,6.6,6.7,10,10.3c0.1,0.1,0.3,0.3,0.4,0.4c1.4,1.4,2.7,2.8,4.1,4.2c0.2,0.2,0.3,0.3,0.5,0.5c4.5,4.7,8.9,9.3,12.6,13.3
				c0.1,0.1,0.3,0.3,0.4,0.4c5.1,5.5,9,10,10.4,12c3.6,5.5,6.3,12.5,7.9,16.9c0,0,0,0,0,0c0.1,0.2,0.1,0.4,0.2,0.6
				C401.1,315.3,401.5,316.7,401.5,316.7z"/>
			<g>
				<path style="fill:#662C33;" d="M303.8,271.2c-1.8,2.2-4.5,3.5-7.9,4c0-0.2,0-0.4,0-0.6c3.2-0.5,5.8-1.7,7.5-3.8
					c3.1-3.6,2.6-8.6,2.6-8.6l0.6-0.1C306.5,262.4,307,267.4,303.8,271.2z"/>
				<path style="fill:#662C33;" d="M354,254.5c-0.2,0-0.3,0-0.5,0c-5,0-10.2-5.5-10.5-5.7l0.4-0.4c0.1,0.1,5.3,5.5,10.1,5.6
					C353.6,254.2,353.8,254.3,354,254.5z"/>
				<path style="fill:#662C33;" d="M319.8,344.7c-0.1,0.2-0.2,0.5-0.3,0.7c-3.3,1.2-6.4,1.7-9.2,1.7c-8.9,0-15-5.1-18.4-9
					c0.1-0.2,0.2-0.4,0.3-0.6C296.6,342.6,305.8,350,319.8,344.7z"/>
				<path style="fill:#662C33;" d="M331.9,275.2c0.7,3.2,1.2,6.7,1.2,10.3c-0.2,0.1-0.4,0.2-0.6,0.3c0-16.8-9.7-29.8-9.8-30l0.4-0.3
					c0.1,0.1,5.8,7.9,8.6,19.1c1.1-0.7,1.9-1.8,2.2-3.2c1.4-5.9-5-15.5-5-15.6l0.5-0.3c0.3,0.4,6.6,9.9,5.1,16
					C334.1,273.2,333.3,274.4,331.9,275.2z"/>
				<path style="fill:#662C33;" d="M381.9,283.7c-1.7,1.8-3.2,3.3-3.4,3.5l-0.3,0.3l-0.1-0.4c-2.2-5.7-16.2-18-16.3-18.2l-0.2-0.2
					l2.3-3.9c0.1,0.1,0.3,0.3,0.4,0.4l-2,3.2c2.7,0.9,4.7,1.1,6,0.9c0.2,0.2,0.3,0.3,0.5,0.5c-0.5,0.1-0.9,0.1-1.5,0.1
					c-1.3,0-2.7-0.3-4.3-0.7c3.2,2.9,13,12,15.3,17.1c0.9-0.9,2-2,3.1-3.2C381.7,283.4,381.8,283.5,381.9,283.7z"/>
				<path style="fill:#662C33;" d="M305.2,321.8l-0.2,0c-0.2,0.1-2.7,0.6-5.6,0.6c-1.5,0-3-0.1-4.4-0.5c0-0.2,0-0.4,0-0.6
					c3.7,1.1,8.6,0.2,9.7,0l-0.9-23.1c-0.5,1.3-1.6,3-3.5,4c-0.9,0.5-2,0.7-3.1,0.7c-0.7,0-1.4-0.1-2.1-0.2v-0.6
					c1.9,0.4,3.6,0.3,5-0.4c2.4-1.2,3.3-3.7,3.6-4.7c-1.9,0.3-5.6-0.7-8.4-1.5V295c3.1,0.9,7.2,2,8.7,1.5l0.4-0.1L305.2,321.8z"/>
				<path style="fill:#662C33;" d="M400.4,313.2c-3.2,3.2-9.8,8.1-20,8.1c-1.1,0-2.2-0.1-3.4-0.2l-0.4-0.6
					c12.4,1.4,20.1-4.4,23.6-7.8C400.3,312.8,400.3,313,400.4,313.2z"/>
			</g>
		</g>
		<path style="fill:#CE364C;" d="M346.2,116.6c0,0-1.2-2.8-6.5-2.8c-4,0-5.6,2.2-5.6,2.2c-2.4,7-5,34-5.9,34.9
			c-0.5,0.5-30.3,20.6-30.3,20.6c16.2,0.3,26.3,20.3,26.3,20.3c0.5-6.6,18.8-32.5,19-34.9C343.6,152.5,351.4,132.9,346.2,116.6z"/>
		<path style="fill:#CE364C;" d="M294.4,257.3c0,0-0.1,5.6,1.7,6c1.8,0.4,16.6,4.7,33.6-3c17-7.7,20-13.5,15-17.7
			C339.7,238.3,294.4,257.3,294.4,257.3z"/>
		<path style="fill:#F24052;" d="M287.6,175.3c0,0-15.5-1.8-24.4,2c0,0-2.5,11,9.7,35.6c12.2,24.6,9.4,40.1,23.1,45.9
			c12.2,5.2,48.2-10.2,49.3-15.3c2.8-12.8-19.2-35.4-20.5-48.5C323.5,182,310.7,162.4,287.6,175.3z"/>
		<path style="fill:#CE364C;" d="M263.2,177.3c-10.8,3.8-23,16-23,21.9c0,5.9,10.2,8.1,10.2,8.1l16.7-8.1c0,0,4.8-3.3,1.7-13
			C265.7,176.4,263.2,177.3,263.2,177.3z"/>
		<g>
			<path style="fill:#CFD8DC;" d="M307.7,188.2c-3.2,0-7.2-1.2-9.7-2.9c-1.4-1-2.2-2.1-2.4-3.2c-0.6-3.8,3.1-5.8,3.3-5.9l0.5,1
				c-0.1,0.1-3.2,1.7-2.7,4.7c0.1,0.8,0.8,1.7,1.9,2.5c2.8,2,7.6,3.2,10.8,2.6c1.4-0.2,2.3-0.8,2.8-1.5c0.5-0.9,0.1-2,0.1-2l1-0.4
				c0,0.1,0.6,1.5-0.1,2.9c-0.6,1.1-1.8,1.8-3.5,2.1C309,188.1,308.4,188.2,307.7,188.2z"/>
		</g>
		<g>
			<path style="fill:#CFD8DC;" d="M294,199.9c-2.4,0-6.4-1-6.9-4.9c-0.3-2-0.1-3.7,0.1-5.1c0.2-2.2,0.4-3.9-0.8-5.9
				c-2.1-3.4-4.9-3.6-5-3.6l0.1-1.1c0.1,0,3.5,0.2,5.9,4.1c1.5,2.4,1.2,4.4,1,6.6c-0.2,1.5-0.3,3-0.1,4.9c0.6,4.2,6,4,6.2,4l0.1,1.1
				C294.3,199.9,294.1,199.9,294,199.9z"/>
		</g>
		<path style="fill:#CE364C;" d="M297.4,179.9c0,0,8.2-5.6,6.2-11.6c-1.9-6-28.3-5.6-35.1,1.6c-6.8,7.2,14.7,12,14.7,12
			C284.9,178.6,295.5,178.2,297.4,179.9z"/>
		<path style="fill:#A02E44;" d="M282.6,179c-3.9-1.3-6.2-4.1-5.4-7.4c0.8-3.2,17.5-3.3,20.7-0.7C301.1,173.5,296.7,183.8,282.6,179
			z"/>
		<path style="fill:#EF6E4B;" d="M280.8,169.9c0,0,3.4,5.9,1.8,9.1c0,0,11.8,4.1,11.8-2.5c0,0-2.2-4.9-1.4-8.1L280.8,169.9z"/>
		<g>
			<path style="fill:#FFB878;" d="M276.9,164.8c0,0-5.8-9.3-5.3-18.1c0.3-4.4,2.5-6.2,2.5-6.2s-1.8-2.6,0.1-6.5
				c0,0,2.7,3.2,12.3,2.2c9.2-1,10.2,5.6,10.2,5.6c6.6,1,2.1,21-2.5,23H276.9z"/>
			<path style="fill:#FF8B66;" d="M274.4,156.2c0,0-3.3-3.3-3.7,0.6c-0.5,4.5,3.6,6.3,4.4,4.9C275.9,160.2,274.4,156.2,274.4,156.2z
				"/>
			<path style="fill:#FF8B66;" d="M297.7,156.4c0,0,3.3-3.3,3.7,0.6c0.5,4.5-3.6,6.3-4.4,4.9C296.2,160.4,297.7,156.4,297.7,156.4z"
				/>
			<path style="fill:#FF8B66;" d="M285.7,172.5c-7.4,0-11.6-4.8-11.6-19.3c0-7.5,3.8-12,12.1-12c8.3,0,11.8,4.6,11.8,12
				C298,168.8,293.3,172.5,285.7,172.5z"/>
			
				<ellipse transform="matrix(0.9851 -0.1719 0.1719 0.9851 -22.896 52.8667)" style="fill:#DB614D;" cx="293.9" cy="158.7" rx="1.7" ry="1.4"/>
			
				<ellipse transform="matrix(0.9979 6.507868e-002 -6.507868e-002 0.9979 10.9157 -17.7966)" style="fill:#DB614D;" cx="278.6" cy="158.7" rx="1.7" ry="1.4"/>
			<g>
				<path style="fill:#FFB878;" d="M292.3,150.6c-0.1,0-0.2,0-0.3-0.1c-1.2-0.9-2.9-0.6-3-0.6c-0.2,0-0.4-0.1-0.4-0.3
					c0-0.2,0.1-0.4,0.3-0.4c0.1,0,2.1-0.4,3.6,0.7c0.2,0.1,0.2,0.4,0.1,0.5C292.5,150.5,292.4,150.6,292.3,150.6z"/>
			</g>
			<g>
				<path style="fill:#FFB878;" d="M278.1,150.7c-0.1,0-0.2-0.1-0.2-0.1c-0.1-0.2-0.1-0.4,0.1-0.5c1.4-1.1,3.4-0.8,3.5-0.8
					c0.2,0,0.3,0.2,0.3,0.4c0,0.2-0.2,0.3-0.4,0.3c0,0-1.8-0.3-2.9,0.7C278.3,150.6,278.2,150.7,278.1,150.7z"/>
			</g>
			<ellipse style="fill:#1A4850;" cx="290.6" cy="154.8" rx="0.9" ry="1.7"/>
			<ellipse style="fill:#1A4850;" cx="280.7" cy="154.8" rx="0.9" ry="1.7"/>
			<path style="fill:#FFB878;" d="M276.4,142.8c0,0,7.9,2.9,19.2,2.1c0,0,2.4,3,2.1,13.6c0,0,6.6-19.1-12.7-19.1
				S274.4,158,274.4,158S272.8,146.3,276.4,142.8z"/>
			<g>
				<path style="fill:#DB614D;" d="M286.2,159.7l-0.6-0.6l1.5-1.5c-1.4-2-1.4-6.6-1.4-6.8l0.8,0c0,0,0,5,1.4,6.6l0.3,0.3
					L286.2,159.7z"/>
			</g>
			<path style="fill:#1A4850;" d="M281.3,162.1c0,0,7.3,0.3,10.9-0.7c0,0,0.6,5.3-5,5.6C281.3,167.3,281.3,162.1,281.3,162.1z"/>
		</g>
		<path style="fill:#CFD8DC;" d="M312.3,182.1c1.4-0.3,1.2,3.4,0,2.3C311.1,183.4,311,182.4,312.3,182.1z"/>
		<path style="fill:#CFD8DC;" d="M295.6,199.7c-0.2,1.4-3.6,0.1-2.2-0.8C294.8,198.1,295.8,198.3,295.6,199.7z"/>
		<path style="fill:#EF6E4B;" d="M280.7,207.3c0,0-2.2,5.7-2.1,8.8c0.1,3.2,1.2,2.8,1.2,2.8s-1.7,0.7-2,2.5
			c-0.3,1.8,4.3,3.2,4.6,3.2c0.3,0,3.6-1.2,3.6-1.2l0.7-10.4l-2.9-1.8L280.7,207.3z"/>
		<path style="fill:#FF8B66;" d="M282.5,206.6c0,0,4,2.5,5.6,4c1.6,1.5,0.7,13.3,0,13.9c-0.7,0.6-5.8,1.7-6.8,1.1
			c-1-0.6,0.4-4.1,0.4-4.1s2.6-0.6,2.2,0.4c-0.4,1,0,1.8,0,1.8l1.1-0.4c0,0-0.5-2.6,0-4.6c0.5-1.9-3.6-4-4.1-7.5
			C280.3,207.5,282.5,206.6,282.5,206.6z"/>
		<path style="fill:#CE364C;" d="M240.9,200.8c-1.3-5.5,4.2-7.5,11.9-6.6c8.9,1.1,27.1,3.4,31.1,13c0,0,1.3,3.8-2.1,5.6
			C272.4,218,243.3,211.2,240.9,200.8z"/>
		<path style="fill:#A02E44;" d="M268.7,197.1c0,0-10.6-4.4-15.9-4.8C247.5,191.9,260.1,196.5,268.7,197.1z"/>
		<g>
			<path style="fill:#FF8B66;" d="M348,101.8c-0.8,0.9-2.1,4.5-2.1,4.5c-0.6,3-0.9,4.6-1.9,6c-1,1.4-0.5,3.8-0.5,3.8s-4,2.1-7.4-0.5
				c0,0,0.4-2.4,0-3.1c-0.7-1.4-2.9-2.1-3.7-4.8c-0.8-2.7-3.1-5.8-3.1-5.8s0.7-1.4,1.9-0.6c1.2,0.9,2,3.1,2.6,3.3
				c0.1,0,0.3,0.1,0.4,0.1c0,0,0,0,0,0c0.5,0.1,1,0,1.3-0.3c0,0,0.1,0,0.1-0.1c1.1-1.3,1.4-5,1.3-6.7c-0.1-2.3,0-5.6,1.4-5
				c1.4,0.5,0.1,1.8,1.2,7l0.5,0.1c0.1,0.4,1.1-3.1,1.3-6.4c0.2-2.3,1.6-1.4,2-0.7c0.3,0.7-0.2,3-0.3,4.6c-0.1,1.1-0.2,2.2-0.2,2.9
				l0.6,0.3c2.2-3.9,1.5-5.5,2.8-5.6c1.3-0.1,0.8,3.2,0.1,4.5c-0.3,0.5-0.6,1.7-0.8,2.8c2.3-2.7,2-4,3.1-3.9
				C349.8,98.3,348.8,100.9,348,101.8z"/>
			<path style="fill:#EF6E4B;" d="M338.1,108c-0.8-2.1-3.6-3.1-3.9-3.2c0.5,0.1,1,0,1.3-0.3C338.2,105.6,338.1,108,338.1,108z"/>
		</g>
		<g>
			<path style="fill:#CFD8DC;" d="M289.9,391.9c0,0-1.5-3.1-0.2-4.5c1.4-1.3,3,1.2,5.3,0.6c2.3-0.6,2.9-2.2,3.5,0
				C299.1,390.4,298.4,397.5,289.9,391.9z"/>
			<path style="fill:#ADBEC4;" d="M298.7,391.8c0,0-6.3,2.2-9.5,0l0.8,2.7c0,0,6.8,0.7,7.8-1L298.7,391.8z"/>
			<path style="fill:#ADBEC4;" d="M298.6,395.2c0,0-5.8-0.8-8.5,0.6v1.3c0,0,7.5-1.8,9.9,0L298.6,395.2z"/>
			<path style="fill:#ADBEC4;" d="M289.8,399.9c0,0,1.1-2.7,4.6-2.9c3.5-0.2,5.9,1.7,5.9,1.7S294.7,396.5,289.8,399.9z"/>
		</g>
		<g>
			<path style="fill:#CFD8DC;" d="M437.9,362.2c-11,14.7-26.1,17.6-26.1,17.6c-4.4-3.5-4.5-7.6-4.5-7.6s-4.2-3.8-4.8-5.6
				c-0.6-1.8,3.6-7.2,6.1-6.7c1.7,0.4,2.7,1.8,3.2,2.6c-2.1-4.7-0.4-6.3,2.5-5.9c3.1,0.4,0.2,1.1,2.4,3.6c0.2,0.2,0.3,0.3,0.5,0.5
				c0.4,0.3,0.9,0.5,1.4,0.6c0.5,0.1,1,0.1,1.6,0.1c0.3,0,0.6,0,0.9-0.1c0.6-0.1,1.1-0.2,1.7-0.4c0.9-0.3,1.9-0.7,2.8-1.2
				c3.8-2.1,5.4-2.8,8.3-2.1c2.9,0.7,2.9,2.9,2.9,2.9L437.9,362.2z"/>
			<path style="fill:#ADBEC4;" d="M437.9,362.2c-11,14.7-26.1,17.6-26.1,17.6c7.7-3.3,14.7-7.6,19.5-12.9
				C436.1,361.5,437.9,362.2,437.9,362.2z"/>
			<g>
				<path style="fill:#ADBEC4;" d="M417.2,360.6c0.4,0.3,0.9,0.5,1.4,0.6c-2.9,0.6-3.1,3.2-3.1,3.2l-1.2-0.4
					C414.5,360.9,417,360.7,417.2,360.6z"/>
				<path style="fill:#ADBEC4;" d="M419.2,364.7l-1.3,0c-0.5-1.8,0.1-2.9,0.8-3.6c0.5,0.1,1,0.1,1.6,0.1
					C418.7,362.8,419.2,364.7,419.2,364.7z"/>
				<path style="fill:#ADBEC4;" d="M422.4,364l-1.3,0.2c-0.5-1.3-0.4-2.3,0-3c0.6-0.1,1.1-0.2,1.7-0.4
					C421.8,362.4,422.4,364,422.4,364z"/>
			</g>
		</g>
		<path style="fill:#CE364C;" d="M298.8,227.1c0,0,2.9,15.4-2.9,21.5c-5.8,6.1-2,1.1-0.2-6.8C297.4,233.9,296,225.6,298.8,227.1z"/>
		<path style="fill:#CE364C;" d="M325.4,220.2c0,0,9.1,3,13.8,11.4C339.2,231.6,332.9,217.9,325.4,220.2z"/>
	</g>
</g>
<g id="DESIGNED_BY_FREEPIK">
</g>
</svg>
